<svg width="109" height="113" viewBox="0 0 109 113" fill="none" xmlns="http://www.w3.org/2000/svg">
<g filter="url(#filter0_ddi_487_702)">
<rect x="4.16858" y="2.39478" width="100" height="100" rx="19.9562" fill="#C46A15" fill-opacity="0.8" shape-rendering="crispEdges"/>
</g>
<rect x="11.9293" y="10.1555" width="84.4785" height="47.6732" rx="13.3042" fill="url(#paint0_linear_487_702)"/>
<rect x="23.0323" y="22.7502" width="62.0401" height="59.9055" rx="9" fill="white"/>
<rect x="23.0323" y="22.7502" width="62.0401" height="59.9055" rx="9" stroke="black" stroke-width="2"/>
<path d="M59.4292 51.2647H59.1987L48.3267 51.2696C48.1801 51.2697 48.0432 51.2914 47.9282 51.3145C47.9098 50.0287 47.9175 48.7432 47.9175 47.4483C47.9189 47.4482 47.9205 47.4483 47.9214 47.4483L47.9526 47.4464C51.7783 47.4418 55.6042 47.4358 59.4292 47.4356V51.2647Z" fill="#784BD2" stroke="black"/>
<path d="M73.4655 47.4346C73.4638 48.5425 73.4666 49.642 73.4508 50.7432C73.4483 50.9208 73.4248 51.0811 73.3932 51.2745H61.9713C61.9606 49.9988 61.9648 48.7276 61.9615 47.4454C65.7965 47.4408 69.631 47.4359 73.4655 47.4346Z" fill="#784BD2" stroke="black"/>
<path d="M67.0425 59.0548C67.0107 60.2766 66.9803 61.5028 66.9478 62.7638H66.7056C63.119 62.7638 59.5305 62.7608 55.9429 62.7677C55.7811 62.7678 55.6306 62.7933 55.5073 62.8175C55.4906 62.8208 55.4745 62.8232 55.4595 62.8263C55.4477 61.5756 55.449 60.3241 55.4497 59.0402C59.3138 59.0424 63.178 59.0482 67.0425 59.0548Z" fill="#784BD2" stroke="black"/>
<path d="M62.1681 53.2744H62.1691L73.462 53.2783C73.4677 53.2783 73.4738 53.2791 73.4796 53.2792C73.4714 53.337 73.4657 53.3982 73.465 53.4619C73.4584 54.0014 73.458 54.5413 73.4581 55.0771L73.4523 56.6796C73.4515 56.7532 73.4407 56.8371 73.4181 56.9619C73.4159 56.974 73.4137 56.9867 73.4113 56.9999H61.9708C61.9685 55.7614 61.9717 54.5225 61.9767 53.2822C62.0398 53.2785 62.1024 53.2744 62.1681 53.2744Z" fill="#784BD2" stroke="black"/>
<path d="M59.4484 53.2778C59.4383 53.3465 59.4307 53.4205 59.4298 53.4976V53.4985C59.4194 54.6337 59.4257 55.7745 59.424 56.9028C58.7131 56.9489 58.0728 57.0016 57.4152 57.0044C54.2588 57.0159 51.1032 57.0032 47.9435 56.9985V53.2778C51.7779 53.2745 55.6134 53.2767 59.4484 53.2778Z" fill="#784BD2" stroke="black"/>
<path d="M47.4167 59.0588C49.2396 59.0611 51.0626 59.0626 52.8855 59.0647C52.8953 59.1289 52.8922 59.111 52.8923 59.093V59.094C52.884 60.2615 52.889 61.4365 52.8855 62.5979V62.5989C52.8855 62.6545 52.88 62.7084 52.8777 62.7639H52.657L41.907 62.7688C41.7642 62.7689 41.6298 62.7872 41.5144 62.8069L41.5085 59.051C43.4778 59.0532 45.4475 59.0564 47.4167 59.0588Z" fill="#784BD2" stroke="black"/>
<path d="M55.5671 64.7833C59.3921 64.7798 63.2178 64.7799 67.0427 64.7833V68.419L67.0056 68.4131H66.9617C63.3597 68.4097 59.7561 68.4042 56.1521 68.4053C56.0149 68.4054 55.8956 68.4363 55.8181 68.459C55.7499 68.4791 55.72 68.4877 55.6931 68.4962H55.5017C55.487 68.497 55.4722 68.4974 55.4548 68.4981C55.4432 67.2635 55.4492 66.0277 55.4548 64.7881C55.4911 64.7849 55.5275 64.7833 55.5671 64.7833Z" fill="#784BD2" stroke="black"/>
<path d="M45.4037 53.2754C45.3935 53.345 45.3876 53.4204 45.3871 53.499C45.3764 54.6096 45.3828 55.73 45.3793 56.832V56.834C45.3793 56.8802 45.375 56.9241 45.3724 56.9707H34.3851C34.3783 55.7523 34.381 54.5178 34.3822 53.2754C38.0563 53.2732 41.7292 53.2742 45.4037 53.2754Z" fill="#784BD2" stroke="black"/>
<path d="M73.722 64.9199C73.7255 66.2102 73.7265 67.4998 73.722 68.7881C72.3627 68.7832 71.0033 68.7793 69.6439 68.7744V64.9199H73.722Z" fill="white" stroke="black"/>
<path d="M39.1306 63.0173H35.0837V59.1393C36.4374 59.1242 37.7843 59.1098 39.1306 59.0954V63.0173Z" fill="white" stroke="black"/>
<path d="M73.6753 41.876V45.7314H69.7417V41.876H73.6753Z" fill="white" stroke="black"/>
<path d="M73.6713 36.0618V39.9944H69.7064V36.0618H73.6713Z" fill="white" stroke="black"/>
<path d="M45.5873 47.627C45.5983 47.6269 45.6088 47.6268 45.6185 47.627C45.6157 48.297 45.6148 48.9668 45.6136 49.6357C45.6126 50.2624 45.6112 50.8885 45.6088 51.5146H41.5287L41.5687 47.6367C41.5687 47.6352 41.5687 47.6334 41.5687 47.6318L45.5873 47.627Z" fill="white" stroke="black"/>
<path d="M73.6711 59.1827V63.0646H69.7258V59.1827H73.6711Z" fill="white" stroke="black"/>
<defs>
<filter id="filter0_ddi_487_702" x="-5.68628e-05" y="2.70605e-05" width="108.337" height="112.506" filterUnits="userSpaceOnUse" color-interpolation-filters="sRGB">
<feFlood flood-opacity="0" result="BackgroundImageFix"/>
<feColorMatrix in="SourceAlpha" type="matrix" values="0 0 0 0 0 0 0 0 0 0 0 0 0 0 0 0 0 0 127 0" result="hardAlpha"/>
<feMorphology radius="2.66083" operator="dilate" in="SourceAlpha" result="effect1_dropShadow_487_702"/>
<feOffset dy="1.77389"/>
<feGaussianBlur stdDeviation="0.753902"/>
<feComposite in2="hardAlpha" operator="out"/>
<feColorMatrix type="matrix" values="0 0 0 0 0 0 0 0 0 0 0 0 0 0 0 0 0 0 1 0"/>
<feBlend mode="normal" in2="BackgroundImageFix" result="effect1_dropShadow_487_702"/>
<feColorMatrix in="SourceAlpha" type="matrix" values="0 0 0 0 0 0 0 0 0 0 0 0 0 0 0 0 0 0 127 0" result="hardAlpha"/>
<feMorphology radius="2.66083" operator="dilate" in="SourceAlpha" result="effect2_dropShadow_487_702"/>
<feOffset dy="6.20861"/>
<feGaussianBlur stdDeviation="0.620861"/>
<feComposite in2="hardAlpha" operator="out"/>
<feColorMatrix type="matrix" values="0 0 0 0 0 0 0 0 0 0 0 0 0 0 0 0 0 0 0.25 0"/>
<feBlend mode="normal" in2="effect1_dropShadow_487_702" result="effect2_dropShadow_487_702"/>
<feBlend mode="normal" in="SourceGraphic" in2="effect2_dropShadow_487_702" result="shape"/>
<feColorMatrix in="SourceAlpha" type="matrix" values="0 0 0 0 0 0 0 0 0 0 0 0 0 0 0 0 0 0 127 0" result="hardAlpha"/>
<feMorphology radius="2.66083" operator="erode" in="SourceAlpha" result="effect3_innerShadow_487_702"/>
<feOffset/>
<feComposite in2="hardAlpha" operator="arithmetic" k2="-1" k3="1"/>
<feColorMatrix type="matrix" values="0 0 0 0 1 0 0 0 0 0.862745 0 0 0 0 0.631373 0 0 0 0.8 0"/>
<feBlend mode="normal" in2="shape" result="effect3_innerShadow_487_702"/>
</filter>
<linearGradient id="paint0_linear_487_702" x1="54.1686" y1="10.1555" x2="54.1686" y2="57.8287" gradientUnits="userSpaceOnUse">
<stop stop-color="#FFB748"/>
<stop offset="1" stop-color="#E0952F" stop-opacity="0.73"/>
</linearGradient>
</defs>
</svg>
