<svg width="109" height="113" viewBox="0 0 109 113" fill="none" xmlns="http://www.w3.org/2000/svg">
<g filter="url(#filter0_ddi_97_4075)">
<rect x="4.16846" y="2.39453" width="100" height="100" rx="19.9562" fill="#C46A15" fill-opacity="0.8" shape-rendering="crispEdges"/>
</g>
<rect x="11.9292" y="10.1553" width="84.4785" height="47.6732" rx="13.3042" fill="url(#paint0_linear_97_4075)"/>
<rect x="23.208" y="22.3359" width="62.0401" height="59.9055" rx="9" fill="white"/>
<rect x="23.208" y="22.3359" width="62.0401" height="59.9055" rx="9" stroke="black" stroke-width="2"/>
<path d="M57.2272 62.7735C55.1777 61.2016 53.5483 59.1794 52.4753 56.8761C51.9379 55.7023 49.6487 50.6469 52.1181 46.2361C52.7775 45.0991 53.6608 44.0972 54.7185 43.2866C57.1764 41.3908 58.6789 42.0228 61.6005 40.6009C62.4345 40.1965 67.134 37.9152 67.3011 34.3306C67.3962 32.2895 65.9903 30.6544 65.189 29.874C66.3709 30.2331 67.4563 30.8388 68.3678 31.6481C68.6759 31.923 69.8868 33.0226 70.439 34.5329C71.9268 38.6056 67.6698 43.0733 67.3437 43.4066C66.6326 44.1334 65.0841 45.1286 61.9872 47.1176C58.5462 49.3294 58.1743 49.3294 57.4369 50.2457C55.4706 52.7022 55.6345 55.8129 55.7131 57.2821C55.8223 59.1932 56.3376 61.0624 57.2272 62.7735Z" fill="#4B86C0"/>
<path d="M36.2255 60.9192C36.0092 60.4373 34.5869 57.1576 36.2664 54.5462C37.361 52.8432 39.3502 52.0786 40.9102 51.4798C41.4607 51.2697 42.1997 51.2302 43.2582 50.7942C44.0493 50.4635 44.8046 50.0582 45.5129 49.5841C46.0635 49.2188 46.591 48.822 47.0925 48.396C49.0424 46.7025 50.3975 43.8478 50.6203 43.3722C52.2294 39.9267 52.8603 36.5475 53.1306 34.2979C53.6479 34.9321 53.9941 35.68 54.1384 36.4748C54.239 37.0927 54.2106 37.7238 54.0548 38.3311C53.4157 41.0168 51.1054 46.3786 50.2861 49.464C49.7634 51.4482 48.8212 55.0281 50.4499 58.4989C51.5265 60.7896 53.206 62.2193 55.5541 64.1451C58.9951 66.9761 60.9925 67.3047 62.6377 69.9272C63.4288 71.218 63.9233 72.6575 64.0878 74.1485C63.0108 73.1978 61.8327 72.3596 60.5731 71.6476C58.279 70.3553 55.464 68.7613 52.3065 69.2321C50.7744 69.4596 50.5548 69.9683 47.856 70.4375C45.5719 70.8356 44.6674 70.6571 44.1742 70.5181C42.5848 70.0726 41.5902 69.0109 41.1199 68.4216C41.636 68.6941 42.2063 68.8578 42.7929 68.9019C44.7592 69.0394 46.4633 67.7076 47.2695 66.5622C49.3275 63.6412 47.3104 59.3741 45.467 57.2856C44.8116 56.5494 43.876 55.5099 42.3291 55.2682C40.4415 54.9743 38.9537 56.0707 38.5604 56.3583C36.4106 57.9507 36.2451 60.4942 36.2255 60.9192Z" fill="#CF432A"/>
<path d="M42.8878 49.2369C44.8505 49.2369 46.4416 47.6988 46.4416 45.8016C46.4416 43.9043 44.8505 42.3662 42.8878 42.3662C40.9251 42.3662 39.334 43.9043 39.334 45.8016C39.334 47.6988 40.9251 49.2369 42.8878 49.2369Z" fill="#CF432A"/>
<path d="M62.0373 48.373C61.3819 48.9228 56.5579 53.0651 57.2265 58.498C57.5771 61.3417 59.296 63.4255 60.4889 64.871C62.2016 66.9321 64.3572 68.611 66.8073 69.7921C65.5282 67.7078 64.7281 65.3832 64.4608 62.9752C64.126 59.7708 64.7348 56.5404 66.2174 53.6543C64.9362 53.9738 63.8025 54.6967 62.9959 55.7081C62.0824 56.9029 61.6783 58.3898 61.8669 59.863C61.0958 58.9362 60.5287 57.8675 60.2005 56.7223C59.0175 52.5595 61.5851 48.9829 62.0373 48.373Z" fill="#DA7B31"/>
<path d="M54.4238 33.4102C54.9424 34.1896 55.2712 35.0721 55.3857 35.9915C55.4151 36.2459 55.4741 36.9015 55.0104 39.2191C54.8089 40.2207 54.6106 41.0391 54.4664 41.5983C54.95 41.0991 55.5012 40.665 56.105 40.3076C57.696 39.3597 59.0839 39.3076 60.2473 39.058C61.5205 38.7847 63.2869 38.1101 65.2679 36.3138C64.5857 36.5314 63.8858 36.6937 63.1754 36.7988C62.2745 36.9266 61.367 37.0073 60.4571 37.0406C59.7574 37.0595 59.2969 37.0406 58.6989 37.2823C58.3447 37.4293 58.0193 37.634 57.737 37.8873C57.8542 37.209 57.7824 36.5127 57.5289 35.8699C56.7604 33.9884 54.668 33.467 54.4238 33.4102Z" fill="#FCF250"/>
<path d="M62.4561 50.4331C62.3904 49.6688 62.55 48.9021 62.9165 48.2214C63.0411 48.0002 63.4687 47.2893 65.1335 46.2861C65.9274 45.8049 66.7682 45.3996 67.6438 45.076C69.0235 44.572 70.7571 42.6478 72.3711 36.4834L72.9987 37.0079C71.1307 44.7489 69.2622 52.4911 67.3931 60.2343C68.3257 60.3806 69.2213 60.6952 70.0329 61.1616C70.608 61.4949 71.9041 62.2674 72.5415 63.743C72.7496 64.2169 72.9298 64.6388 72.7938 65.1143C72.53 66.0369 71.2273 66.6688 70.1574 66.6072C68.0764 66.4871 66.6328 63.7319 66.351 62.13C66.2355 61.401 66.191 60.6632 66.2182 59.9261C66.2741 59.3843 66.3838 58.849 66.546 58.3274C67.5422 54.6702 67.8257 53.449 67.9895 52.1267C68.0338 51.7681 68.0584 51.4789 68.0731 51.3194C67.4346 51.713 66.7246 51.9869 65.9806 52.1267C65.1024 52.2846 64.9975 52.0982 64.3912 52.2467C62.6642 52.667 61.7695 54.5706 61.5909 54.9545C61.3222 55.5276 61.1523 56.1391 61.0879 56.765C60.7047 56.2146 60.4869 55.5727 60.4587 54.9103C60.398 52.708 62.733 50.6969 64.8517 50.0697C65.7726 49.7964 66.0495 49.9639 66.818 49.5847C68.1551 48.926 68.858 47.659 69.243 46.6811C68.5339 47.064 67.7923 47.3879 67.0261 47.6495C65.7906 48.0729 65.2761 48.0666 64.5158 48.4552C63.9357 48.749 63.1591 49.3004 62.4561 50.4331Z" fill="#59A657"/>
<defs>
<filter id="filter0_ddi_97_4075" x="-0.000178933" y="-0.00021708" width="108.337" height="112.506" filterUnits="userSpaceOnUse" color-interpolation-filters="sRGB">
<feFlood flood-opacity="0" result="BackgroundImageFix"/>
<feColorMatrix in="SourceAlpha" type="matrix" values="0 0 0 0 0 0 0 0 0 0 0 0 0 0 0 0 0 0 127 0" result="hardAlpha"/>
<feMorphology radius="2.66083" operator="dilate" in="SourceAlpha" result="effect1_dropShadow_97_4075"/>
<feOffset dy="1.77389"/>
<feGaussianBlur stdDeviation="0.753902"/>
<feComposite in2="hardAlpha" operator="out"/>
<feColorMatrix type="matrix" values="0 0 0 0 0 0 0 0 0 0 0 0 0 0 0 0 0 0 1 0"/>
<feBlend mode="normal" in2="BackgroundImageFix" result="effect1_dropShadow_97_4075"/>
<feColorMatrix in="SourceAlpha" type="matrix" values="0 0 0 0 0 0 0 0 0 0 0 0 0 0 0 0 0 0 127 0" result="hardAlpha"/>
<feMorphology radius="2.66083" operator="dilate" in="SourceAlpha" result="effect2_dropShadow_97_4075"/>
<feOffset dy="6.20861"/>
<feGaussianBlur stdDeviation="0.620861"/>
<feComposite in2="hardAlpha" operator="out"/>
<feColorMatrix type="matrix" values="0 0 0 0 0 0 0 0 0 0 0 0 0 0 0 0 0 0 0.25 0"/>
<feBlend mode="normal" in2="effect1_dropShadow_97_4075" result="effect2_dropShadow_97_4075"/>
<feBlend mode="normal" in="SourceGraphic" in2="effect2_dropShadow_97_4075" result="shape"/>
<feColorMatrix in="SourceAlpha" type="matrix" values="0 0 0 0 0 0 0 0 0 0 0 0 0 0 0 0 0 0 127 0" result="hardAlpha"/>
<feMorphology radius="2.66083" operator="erode" in="SourceAlpha" result="effect3_innerShadow_97_4075"/>
<feOffset/>
<feComposite in2="hardAlpha" operator="arithmetic" k2="-1" k3="1"/>
<feColorMatrix type="matrix" values="0 0 0 0 1 0 0 0 0 0.862745 0 0 0 0 0.631373 0 0 0 0.8 0"/>
<feBlend mode="normal" in2="shape" result="effect3_innerShadow_97_4075"/>
</filter>
<linearGradient id="paint0_linear_97_4075" x1="54.1684" y1="10.1553" x2="54.1684" y2="57.8285" gradientUnits="userSpaceOnUse">
<stop stop-color="#FFB748"/>
<stop offset="1" stop-color="#E0952F" stop-opacity="0.73"/>
</linearGradient>
</defs>
</svg>
