<svg width="87" height="90" viewBox="0 0 87 90" fill="none" xmlns="http://www.w3.org/2000/svg">
<g filter="url(#filter0_ddi_182_249)">
<rect x="3.00781" y="1.72852" width="80" height="80" rx="14.4" fill="#F5F6E4" fill-opacity="0.35" shape-rendering="crispEdges"/>
</g>
<rect x="8.60742" y="7.33008" width="68.8" height="34.4" rx="9.6" fill="url(#paint0_linear_182_249)" fill-opacity="0.86"/>
<path d="M42.1357 59.7676L40.8232 58.6729L29.3818 49.1328H22.208V33.6475H29.3828L40.8242 24.1143L42.1357 23.0205V59.7676ZM61.4092 32.1338L64.335 35.0596L64.9014 35.625L64.335 36.1904L59.1221 41.4033L64.9014 47.1826L64.335 47.748L60.8438 51.2393L55.0645 45.46L49.8525 50.6738L49.2861 51.2393L45.2295 47.1826L45.7949 46.6162L51.0078 41.4033L45.2295 35.625L48.7207 32.1338L49.2861 31.5674L55.0645 37.3457L60.2783 32.1338L60.8438 31.5674L61.4092 32.1338Z" fill="white" stroke="black" stroke-width="1.6"/>
<defs>
<filter id="filter0_ddi_182_249" x="-0.000187278" y="0.000515699" width="86.016" height="89.024" filterUnits="userSpaceOnUse" color-interpolation-filters="sRGB">
<feFlood flood-opacity="0" result="BackgroundImageFix"/>
<feColorMatrix in="SourceAlpha" type="matrix" values="0 0 0 0 0 0 0 0 0 0 0 0 0 0 0 0 0 0 127 0" result="hardAlpha"/>
<feMorphology radius="1.92" operator="dilate" in="SourceAlpha" result="effect1_dropShadow_182_249"/>
<feOffset dy="1.28"/>
<feGaussianBlur stdDeviation="0.544"/>
<feComposite in2="hardAlpha" operator="out"/>
<feColorMatrix type="matrix" values="0 0 0 0 0 0 0 0 0 0 0 0 0 0 0 0 0 0 1 0"/>
<feBlend mode="normal" in2="BackgroundImageFix" result="effect1_dropShadow_182_249"/>
<feColorMatrix in="SourceAlpha" type="matrix" values="0 0 0 0 0 0 0 0 0 0 0 0 0 0 0 0 0 0 127 0" result="hardAlpha"/>
<feMorphology radius="1.92" operator="dilate" in="SourceAlpha" result="effect2_dropShadow_182_249"/>
<feOffset dy="4.48"/>
<feGaussianBlur stdDeviation="0.448"/>
<feComposite in2="hardAlpha" operator="out"/>
<feColorMatrix type="matrix" values="0 0 0 0 0 0 0 0 0 0 0 0 0 0 0 0 0 0 0.25 0"/>
<feBlend mode="normal" in2="effect1_dropShadow_182_249" result="effect2_dropShadow_182_249"/>
<feBlend mode="normal" in="SourceGraphic" in2="effect2_dropShadow_182_249" result="shape"/>
<feColorMatrix in="SourceAlpha" type="matrix" values="0 0 0 0 0 0 0 0 0 0 0 0 0 0 0 0 0 0 127 0" result="hardAlpha"/>
<feMorphology radius="1.92" operator="erode" in="SourceAlpha" result="effect3_innerShadow_182_249"/>
<feOffset/>
<feComposite in2="hardAlpha" operator="arithmetic" k2="-1" k3="1"/>
<feColorMatrix type="matrix" values="0 0 0 0 1 0 0 0 0 1 0 0 0 0 1 0 0 0 0.8 0"/>
<feBlend mode="normal" in2="shape" result="effect3_innerShadow_182_249"/>
</filter>
<linearGradient id="paint0_linear_182_249" x1="43.0074" y1="7.33008" x2="43.0074" y2="41.7301" gradientUnits="userSpaceOnUse">
<stop stop-color="#F5F6E4"/>
<stop offset="1" stop-color="#F5F6E4" stop-opacity="0.92"/>
</linearGradient>
</defs>
</svg>
