<svg width="285" height="94" viewBox="0 0 285 94" fill="none" xmlns="http://www.w3.org/2000/svg">
<path d="M271.465 19.2959C278.018 19.2959 283.33 24.6081 283.331 31.1611V58.7832C283.331 65.3364 278.019 70.6494 271.465 70.6494H46.1079V19.2959H271.465Z" fill="url(#paint0_linear_97_3938)" fill-opacity="0.44" stroke="white" stroke-width="1.94519"/>
<g filter="url(#filter0_d_97_3938)">
<mask id="path-2-outside-1_97_3938" maskUnits="userSpaceOnUse" x="97.8647" y="31.2246" width="84" height="28" fill="black">
<rect fill="white" x="97.8647" y="31.2246" width="84" height="28"/>
<path d="M99.813 38.2437C99.8292 37.5629 99.9062 36.8497 100.044 36.104C100.19 35.3584 100.352 34.7221 100.53 34.1953C101.081 34.0818 101.742 33.9602 102.512 33.8306C103.282 33.7009 104.076 33.5874 104.895 33.4902C105.722 33.3929 106.524 33.3159 107.302 33.2592C108.08 33.2024 108.737 33.1741 109.272 33.1741C109.272 34.9653 109.255 36.801 109.223 38.6814C109.19 40.5536 109.146 42.4421 109.089 44.3468C109.032 46.2433 108.964 48.1439 108.882 50.0486C108.81 51.9452 108.733 53.8053 108.652 55.6289C108.522 55.7099 108.299 55.7788 107.983 55.8356C107.667 55.8923 107.302 55.949 106.889 56.0058C106.483 56.0544 106.054 56.0909 105.6 56.1152C105.146 56.1395 104.704 56.1557 104.275 56.1638C103.853 56.1719 103.472 56.176 103.132 56.176C102.792 56.176 102.532 56.1679 102.354 56.1517C102.273 54.8549 102.204 53.4649 102.147 51.9817C102.099 50.4984 102.062 48.9909 102.038 47.4591C102.014 45.9191 102.001 44.3913 102.001 42.8757C102.001 41.352 102.009 39.8931 102.026 38.499C101.928 38.499 101.774 38.4909 101.564 38.4747C101.361 38.4585 101.146 38.4423 100.919 38.4261C100.692 38.4099 100.474 38.3856 100.263 38.3531C100.06 38.3126 99.9103 38.2761 99.813 38.2437ZM111.072 47.0822C110.885 46.1339 110.821 45.0641 110.877 43.8726C110.942 42.6812 111.08 41.4776 111.291 40.2619C111.509 39.038 111.793 37.8668 112.142 36.7484C112.49 35.6218 112.855 34.6613 113.236 33.867C114.484 33.5672 115.688 33.3443 116.847 33.1984C118.014 33.0444 119.177 32.9633 120.336 32.9552C121.495 32.9471 122.67 33.0079 123.861 33.1376C125.061 33.2592 126.309 33.4253 127.606 33.636C128.117 34.8113 128.534 36.0635 128.858 37.3927C129.182 38.7138 129.426 40.039 129.588 41.3682C129.758 42.6893 129.855 43.982 129.879 45.2464C129.904 46.5027 129.875 47.6739 129.794 48.7599C129.713 49.8379 129.584 50.7862 129.405 51.6048C129.235 52.4153 129.024 53.0434 128.773 53.4892C127.541 54.1052 126.342 54.6117 125.174 55.0089C124.007 55.406 122.832 55.7343 121.649 55.9936C120.474 56.2449 119.278 56.4515 118.062 56.6136C116.855 56.7839 115.586 56.9541 114.257 57.1243C114.095 57.0108 113.937 56.7312 113.783 56.2854C113.637 55.8477 113.499 55.3736 113.37 54.863C113.248 54.3443 113.155 53.8377 113.09 53.3433C113.025 52.8408 113.001 52.4639 113.017 52.2126C113.746 52.1802 114.577 52.087 115.509 51.933C116.449 51.7709 117.369 51.5845 118.269 51.3738C119.169 51.1549 119.995 50.9321 120.749 50.7051C121.503 50.4701 122.062 50.2593 122.427 50.0729C122.508 49.8055 122.548 49.5137 122.548 49.1976C122.548 48.8734 122.532 48.533 122.5 48.1764C121.868 48.0953 121.061 48.0264 120.08 47.9697C119.108 47.913 118.079 47.8522 116.992 47.7873C115.915 47.7225 114.853 47.6374 113.807 47.532C112.762 47.4186 111.85 47.2686 111.072 47.0822ZM118.123 42.28C118.423 42.3286 118.763 42.357 119.144 42.3651C119.525 42.3732 119.922 42.3854 120.336 42.4016C120.749 42.4178 121.15 42.434 121.539 42.4502C121.928 42.4583 122.273 42.4867 122.573 42.5353C122.67 41.8383 122.715 41.1413 122.707 40.4442C122.707 39.7472 122.662 39.2123 122.573 38.8394C122.354 38.8394 122.091 38.8273 121.783 38.803C121.483 38.7787 121.167 38.7624 120.834 38.7543C120.502 38.7462 120.182 38.7381 119.874 38.73C119.566 38.7219 119.306 38.726 119.096 38.7422C118.812 39.1717 118.581 39.7229 118.403 40.3956C118.233 41.0683 118.139 41.6964 118.123 42.28ZM130.44 56.9176C131.534 54.4131 132.575 52.1032 133.564 49.9878C134.553 47.8724 135.542 45.8624 136.531 43.9577C137.519 42.045 138.536 40.1808 139.582 38.3653C140.628 36.5417 141.754 34.6775 142.962 32.7729C143.691 32.6918 144.421 32.6716 145.15 32.7121C145.88 32.7526 146.552 32.8134 147.168 32.8944C147.784 32.9755 148.311 33.0646 148.749 33.1619C149.195 33.2511 149.498 33.3199 149.661 33.3686C148.566 35.0625 147.464 36.8821 146.354 38.8273C145.251 40.7644 144.161 42.7582 143.083 44.8088C142.005 46.8593 140.956 48.9301 139.935 51.0212C138.913 53.1123 137.949 55.1466 137.041 57.1243C136.312 57.2053 135.582 57.2458 134.853 57.2458C134.131 57.2458 133.471 57.2296 132.871 57.1972C132.279 57.1648 131.765 57.1162 131.327 57.0513C130.898 56.9946 130.602 56.95 130.44 56.9176ZM150.002 38.2437C150.018 37.5629 150.095 36.8497 150.233 36.104C150.379 35.3584 150.541 34.7221 150.719 34.1953C151.27 34.0818 151.931 33.9602 152.701 33.8306C153.471 33.7009 154.265 33.5874 155.084 33.4902C155.91 33.3929 156.713 33.3159 157.491 33.2592C158.269 33.2024 158.926 33.1741 159.46 33.1741C159.46 34.9653 159.444 36.801 159.412 38.6814C159.379 40.5536 159.335 42.4421 159.278 44.3468C159.221 46.2433 159.152 48.1439 159.071 50.0486C158.998 51.9452 158.921 53.8053 158.84 55.6289C158.711 55.7099 158.488 55.7788 158.172 55.8356C157.856 55.8923 157.491 55.949 157.078 56.0058C156.672 56.0544 156.243 56.0909 155.789 56.1152C155.335 56.1395 154.893 56.1557 154.464 56.1638C154.042 56.1719 153.661 56.176 153.321 56.176C152.981 56.176 152.721 56.1679 152.543 56.1517C152.462 54.8549 152.393 53.4649 152.336 51.9817C152.288 50.4984 152.251 48.9909 152.227 47.4591C152.202 45.9191 152.19 44.3913 152.19 42.8757C152.19 41.352 152.198 39.8931 152.215 38.499C152.117 38.499 151.963 38.4909 151.753 38.4747C151.55 38.4585 151.335 38.4423 151.108 38.4261C150.881 38.4099 150.663 38.3856 150.452 38.3531C150.249 38.3126 150.099 38.2761 150.002 38.2437ZM161.261 47.0822C161.074 46.1339 161.009 45.0641 161.066 43.8726C161.131 42.6812 161.269 41.4776 161.48 40.2619C161.698 39.038 161.982 37.8668 162.331 36.7484C162.679 35.6218 163.044 34.6613 163.425 33.867C164.673 33.5672 165.877 33.3443 167.036 33.1984C168.203 33.0444 169.366 32.9633 170.525 32.9552C171.684 32.9471 172.859 33.0079 174.05 33.1376C175.25 33.2592 176.498 33.4253 177.795 33.636C178.305 34.8113 178.723 36.0635 179.047 37.3927C179.371 38.7138 179.614 40.039 179.777 41.3682C179.947 42.6893 180.044 43.982 180.068 45.2464C180.093 46.5027 180.064 47.6739 179.983 48.7599C179.902 49.8379 179.772 50.7862 179.594 51.6048C179.424 52.4153 179.213 53.0434 178.962 53.4892C177.73 54.1052 176.531 54.6117 175.363 55.0089C174.196 55.406 173.021 55.7343 171.838 55.9936C170.663 56.2449 169.467 56.4515 168.251 56.6136C167.044 56.7839 165.775 56.9541 164.446 57.1243C164.284 57.0108 164.126 56.7312 163.972 56.2854C163.826 55.8477 163.688 55.3736 163.558 54.863C163.437 54.3443 163.344 53.8377 163.279 53.3433C163.214 52.8408 163.19 52.4639 163.206 52.2126C163.935 52.1802 164.766 52.087 165.698 51.933C166.638 51.7709 167.558 51.5845 168.458 51.3738C169.358 51.1549 170.184 50.9321 170.938 50.7051C171.692 50.4701 172.251 50.2593 172.616 50.0729C172.697 49.8055 172.737 49.5137 172.737 49.1976C172.737 48.8734 172.721 48.533 172.689 48.1764C172.057 48.0953 171.25 48.0264 170.269 47.9697C169.297 47.913 168.267 47.8522 167.181 47.7873C166.103 47.7225 165.042 47.6374 163.996 47.532C162.951 47.4186 162.039 47.2686 161.261 47.0822ZM168.312 42.28C168.612 42.3286 168.952 42.357 169.333 42.3651C169.714 42.3732 170.111 42.3854 170.525 42.4016C170.938 42.4178 171.339 42.434 171.728 42.4502C172.117 42.4583 172.462 42.4867 172.762 42.5353C172.859 41.8383 172.904 41.1413 172.895 40.4442C172.895 39.7472 172.851 39.2123 172.762 38.8394C172.543 38.8394 172.279 38.8273 171.971 38.803C171.672 38.7787 171.355 38.7624 171.023 38.7543C170.691 38.7462 170.371 38.7381 170.063 38.73C169.755 38.7219 169.495 38.726 169.285 38.7422C169.001 39.1717 168.77 39.7229 168.592 40.3956C168.421 41.0683 168.328 41.6964 168.312 42.28Z"/>
</mask>
<path d="M99.813 38.2437C99.8292 37.5629 99.9062 36.8497 100.044 36.104C100.19 35.3584 100.352 34.7221 100.53 34.1953C101.081 34.0818 101.742 33.9602 102.512 33.8306C103.282 33.7009 104.076 33.5874 104.895 33.4902C105.722 33.3929 106.524 33.3159 107.302 33.2592C108.08 33.2024 108.737 33.1741 109.272 33.1741C109.272 34.9653 109.255 36.801 109.223 38.6814C109.19 40.5536 109.146 42.4421 109.089 44.3468C109.032 46.2433 108.964 48.1439 108.882 50.0486C108.81 51.9452 108.733 53.8053 108.652 55.6289C108.522 55.7099 108.299 55.7788 107.983 55.8356C107.667 55.8923 107.302 55.949 106.889 56.0058C106.483 56.0544 106.054 56.0909 105.6 56.1152C105.146 56.1395 104.704 56.1557 104.275 56.1638C103.853 56.1719 103.472 56.176 103.132 56.176C102.792 56.176 102.532 56.1679 102.354 56.1517C102.273 54.8549 102.204 53.4649 102.147 51.9817C102.099 50.4984 102.062 48.9909 102.038 47.4591C102.014 45.9191 102.001 44.3913 102.001 42.8757C102.001 41.352 102.009 39.8931 102.026 38.499C101.928 38.499 101.774 38.4909 101.564 38.4747C101.361 38.4585 101.146 38.4423 100.919 38.4261C100.692 38.4099 100.474 38.3856 100.263 38.3531C100.06 38.3126 99.9103 38.2761 99.813 38.2437ZM111.072 47.0822C110.885 46.1339 110.821 45.0641 110.877 43.8726C110.942 42.6812 111.08 41.4776 111.291 40.2619C111.509 39.038 111.793 37.8668 112.142 36.7484C112.49 35.6218 112.855 34.6613 113.236 33.867C114.484 33.5672 115.688 33.3443 116.847 33.1984C118.014 33.0444 119.177 32.9633 120.336 32.9552C121.495 32.9471 122.67 33.0079 123.861 33.1376C125.061 33.2592 126.309 33.4253 127.606 33.636C128.117 34.8113 128.534 36.0635 128.858 37.3927C129.182 38.7138 129.426 40.039 129.588 41.3682C129.758 42.6893 129.855 43.982 129.879 45.2464C129.904 46.5027 129.875 47.6739 129.794 48.7599C129.713 49.8379 129.584 50.7862 129.405 51.6048C129.235 52.4153 129.024 53.0434 128.773 53.4892C127.541 54.1052 126.342 54.6117 125.174 55.0089C124.007 55.406 122.832 55.7343 121.649 55.9936C120.474 56.2449 119.278 56.4515 118.062 56.6136C116.855 56.7839 115.586 56.9541 114.257 57.1243C114.095 57.0108 113.937 56.7312 113.783 56.2854C113.637 55.8477 113.499 55.3736 113.37 54.863C113.248 54.3443 113.155 53.8377 113.09 53.3433C113.025 52.8408 113.001 52.4639 113.017 52.2126C113.746 52.1802 114.577 52.087 115.509 51.933C116.449 51.7709 117.369 51.5845 118.269 51.3738C119.169 51.1549 119.995 50.9321 120.749 50.7051C121.503 50.4701 122.062 50.2593 122.427 50.0729C122.508 49.8055 122.548 49.5137 122.548 49.1976C122.548 48.8734 122.532 48.533 122.5 48.1764C121.868 48.0953 121.061 48.0264 120.08 47.9697C119.108 47.913 118.079 47.8522 116.992 47.7873C115.915 47.7225 114.853 47.6374 113.807 47.532C112.762 47.4186 111.85 47.2686 111.072 47.0822ZM118.123 42.28C118.423 42.3286 118.763 42.357 119.144 42.3651C119.525 42.3732 119.922 42.3854 120.336 42.4016C120.749 42.4178 121.15 42.434 121.539 42.4502C121.928 42.4583 122.273 42.4867 122.573 42.5353C122.67 41.8383 122.715 41.1413 122.707 40.4442C122.707 39.7472 122.662 39.2123 122.573 38.8394C122.354 38.8394 122.091 38.8273 121.783 38.803C121.483 38.7787 121.167 38.7624 120.834 38.7543C120.502 38.7462 120.182 38.7381 119.874 38.73C119.566 38.7219 119.306 38.726 119.096 38.7422C118.812 39.1717 118.581 39.7229 118.403 40.3956C118.233 41.0683 118.139 41.6964 118.123 42.28ZM130.44 56.9176C131.534 54.4131 132.575 52.1032 133.564 49.9878C134.553 47.8724 135.542 45.8624 136.531 43.9577C137.519 42.045 138.536 40.1808 139.582 38.3653C140.628 36.5417 141.754 34.6775 142.962 32.7729C143.691 32.6918 144.421 32.6716 145.15 32.7121C145.88 32.7526 146.552 32.8134 147.168 32.8944C147.784 32.9755 148.311 33.0646 148.749 33.1619C149.195 33.2511 149.498 33.3199 149.661 33.3686C148.566 35.0625 147.464 36.8821 146.354 38.8273C145.251 40.7644 144.161 42.7582 143.083 44.8088C142.005 46.8593 140.956 48.9301 139.935 51.0212C138.913 53.1123 137.949 55.1466 137.041 57.1243C136.312 57.2053 135.582 57.2458 134.853 57.2458C134.131 57.2458 133.471 57.2296 132.871 57.1972C132.279 57.1648 131.765 57.1162 131.327 57.0513C130.898 56.9946 130.602 56.95 130.44 56.9176ZM150.002 38.2437C150.018 37.5629 150.095 36.8497 150.233 36.104C150.379 35.3584 150.541 34.7221 150.719 34.1953C151.27 34.0818 151.931 33.9602 152.701 33.8306C153.471 33.7009 154.265 33.5874 155.084 33.4902C155.91 33.3929 156.713 33.3159 157.491 33.2592C158.269 33.2024 158.926 33.1741 159.46 33.1741C159.46 34.9653 159.444 36.801 159.412 38.6814C159.379 40.5536 159.335 42.4421 159.278 44.3468C159.221 46.2433 159.152 48.1439 159.071 50.0486C158.998 51.9452 158.921 53.8053 158.84 55.6289C158.711 55.7099 158.488 55.7788 158.172 55.8356C157.856 55.8923 157.491 55.949 157.078 56.0058C156.672 56.0544 156.243 56.0909 155.789 56.1152C155.335 56.1395 154.893 56.1557 154.464 56.1638C154.042 56.1719 153.661 56.176 153.321 56.176C152.981 56.176 152.721 56.1679 152.543 56.1517C152.462 54.8549 152.393 53.4649 152.336 51.9817C152.288 50.4984 152.251 48.9909 152.227 47.4591C152.202 45.9191 152.19 44.3913 152.19 42.8757C152.19 41.352 152.198 39.8931 152.215 38.499C152.117 38.499 151.963 38.4909 151.753 38.4747C151.55 38.4585 151.335 38.4423 151.108 38.4261C150.881 38.4099 150.663 38.3856 150.452 38.3531C150.249 38.3126 150.099 38.2761 150.002 38.2437ZM161.261 47.0822C161.074 46.1339 161.009 45.0641 161.066 43.8726C161.131 42.6812 161.269 41.4776 161.48 40.2619C161.698 39.038 161.982 37.8668 162.331 36.7484C162.679 35.6218 163.044 34.6613 163.425 33.867C164.673 33.5672 165.877 33.3443 167.036 33.1984C168.203 33.0444 169.366 32.9633 170.525 32.9552C171.684 32.9471 172.859 33.0079 174.05 33.1376C175.25 33.2592 176.498 33.4253 177.795 33.636C178.305 34.8113 178.723 36.0635 179.047 37.3927C179.371 38.7138 179.614 40.039 179.777 41.3682C179.947 42.6893 180.044 43.982 180.068 45.2464C180.093 46.5027 180.064 47.6739 179.983 48.7599C179.902 49.8379 179.772 50.7862 179.594 51.6048C179.424 52.4153 179.213 53.0434 178.962 53.4892C177.73 54.1052 176.531 54.6117 175.363 55.0089C174.196 55.406 173.021 55.7343 171.838 55.9936C170.663 56.2449 169.467 56.4515 168.251 56.6136C167.044 56.7839 165.775 56.9541 164.446 57.1243C164.284 57.0108 164.126 56.7312 163.972 56.2854C163.826 55.8477 163.688 55.3736 163.558 54.863C163.437 54.3443 163.344 53.8377 163.279 53.3433C163.214 52.8408 163.19 52.4639 163.206 52.2126C163.935 52.1802 164.766 52.087 165.698 51.933C166.638 51.7709 167.558 51.5845 168.458 51.3738C169.358 51.1549 170.184 50.9321 170.938 50.7051C171.692 50.4701 172.251 50.2593 172.616 50.0729C172.697 49.8055 172.737 49.5137 172.737 49.1976C172.737 48.8734 172.721 48.533 172.689 48.1764C172.057 48.0953 171.25 48.0264 170.269 47.9697C169.297 47.913 168.267 47.8522 167.181 47.7873C166.103 47.7225 165.042 47.6374 163.996 47.532C162.951 47.4186 162.039 47.2686 161.261 47.0822ZM168.312 42.28C168.612 42.3286 168.952 42.357 169.333 42.3651C169.714 42.3732 170.111 42.3854 170.525 42.4016C170.938 42.4178 171.339 42.434 171.728 42.4502C172.117 42.4583 172.462 42.4867 172.762 42.5353C172.859 41.8383 172.904 41.1413 172.895 40.4442C172.895 39.7472 172.851 39.2123 172.762 38.8394C172.543 38.8394 172.279 38.8273 171.971 38.803C171.672 38.7787 171.355 38.7624 171.023 38.7543C170.691 38.7462 170.371 38.7381 170.063 38.73C169.755 38.7219 169.495 38.726 169.285 38.7422C169.001 39.1717 168.77 39.7229 168.592 40.3956C168.421 41.0683 168.328 41.6964 168.312 42.28Z" fill="white"/>
<path d="M99.813 38.2437L98.8198 38.2201L98.8023 38.9541L99.4988 39.1863L99.813 38.2437ZM100.044 36.104L99.0689 35.9132L99.067 35.9235L100.044 36.104ZM100.53 34.1953L100.33 33.2221L99.7719 33.337L99.5892 33.8768L100.53 34.1953ZM104.895 33.4902L104.779 32.5034L104.778 32.5035L104.895 33.4902ZM109.272 33.1741H110.265V32.1805H109.272V33.1741ZM109.223 38.6814L110.216 38.6986L110.216 38.6985L109.223 38.6814ZM109.089 44.3468L110.082 44.3765L110.082 44.3764L109.089 44.3468ZM108.882 50.0486L107.89 50.0064L107.89 50.0104L108.882 50.0486ZM108.652 55.6289L109.178 56.4714L109.621 56.1947L109.644 55.673L108.652 55.6289ZM106.889 56.0058L107.007 56.9923L107.015 56.9913L107.024 56.9901L106.889 56.0058ZM104.275 56.1638L104.256 55.1704L104.256 55.1704L104.275 56.1638ZM102.354 56.1517L101.362 56.2136L101.415 57.064L102.264 57.1411L102.354 56.1517ZM102.147 51.9817L101.154 52.0142L101.154 52.0196L102.147 51.9817ZM102.038 47.4591L101.044 47.4748L101.044 47.4748L102.038 47.4591ZM102.026 38.499L103.019 38.5106L103.031 37.5055H102.026V38.499ZM101.564 38.4747L101.484 39.4651L101.488 39.4653L101.564 38.4747ZM100.263 38.3531L100.068 39.3274L100.09 39.3318L100.112 39.3351L100.263 38.3531ZM99.813 38.2437L100.806 38.2674C100.821 37.6447 100.892 36.9842 101.021 36.2845L100.044 36.104L99.067 35.9235C98.9207 36.7152 98.8373 37.4811 98.8198 38.2201L99.813 38.2437ZM100.044 36.104L101.019 36.2948C101.159 35.5779 101.311 34.9869 101.471 34.5138L100.53 34.1953L99.5892 33.8768C99.3927 34.4573 99.2205 35.1388 99.0689 35.9132L100.044 36.104ZM100.53 34.1953L100.731 35.1684C101.267 35.0581 101.915 34.9387 102.677 34.8103L102.512 33.8306L102.347 32.8508C101.569 32.9818 100.896 33.1055 100.33 33.2221L100.53 34.1953ZM102.512 33.8306L102.677 34.8103C103.43 34.6835 104.209 34.5722 105.012 34.4768L104.895 33.4902L104.778 32.5035C103.944 32.6026 103.134 32.7183 102.347 32.8508L102.512 33.8306ZM104.895 33.4902L105.011 34.4769C105.824 34.3812 106.612 34.3057 107.374 34.2501L107.302 33.2592L107.23 32.2682C106.436 32.3261 105.619 32.4045 104.779 32.5034L104.895 33.4902ZM107.302 33.2592L107.374 34.2501C108.138 34.1944 108.769 34.1676 109.272 34.1676V33.1741V32.1805C108.704 32.1805 108.022 32.2105 107.23 32.2682L107.302 33.2592ZM109.272 33.1741H108.278C108.278 34.9593 108.262 36.7893 108.229 38.6643L109.223 38.6814L110.216 38.6985C110.249 36.8127 110.265 34.9712 110.265 33.1741H109.272ZM109.223 38.6814L108.229 38.6642C108.197 40.5322 108.153 42.4166 108.096 44.3172L109.089 44.3468L110.082 44.3764C110.139 42.4676 110.184 40.575 110.216 38.6986L109.223 38.6814ZM109.089 44.3468L108.096 44.3171C108.039 46.2094 107.971 48.1059 107.89 50.0064L108.882 50.0486L109.875 50.0909C109.956 48.182 110.025 46.2772 110.082 44.3765L109.089 44.3468ZM108.882 50.0486L107.89 50.0104C107.817 51.9051 107.74 53.7632 107.659 55.5848L108.652 55.6289L109.644 55.673C109.725 53.8473 109.802 51.9853 109.875 50.0868L108.882 50.0486ZM108.652 55.6289L108.125 54.7864C108.16 54.7642 108.161 54.7712 108.094 54.7921C108.032 54.8111 107.939 54.834 107.807 54.8576L107.983 55.8356L108.158 56.8135C108.492 56.7536 108.877 56.6597 109.178 56.4714L108.652 55.6289ZM107.983 55.8356L107.807 54.8576C107.508 54.9114 107.157 54.9661 106.754 55.0214L106.889 56.0058L107.024 56.9901C107.447 56.932 107.826 56.8732 108.158 56.8135L107.983 55.8356ZM106.889 56.0058L106.77 55.0193C106.389 55.0651 105.981 55.0998 105.547 55.1231L105.6 56.1152L105.653 57.1073C106.126 57.082 106.578 57.0438 107.007 56.9923L106.889 56.0058ZM105.6 56.1152L105.547 55.1231C105.104 55.1468 104.674 55.1626 104.256 55.1704L104.275 56.1638L104.294 57.1572C104.735 57.1489 105.188 57.1322 105.653 57.1073L105.6 56.1152ZM104.275 56.1638L104.256 55.1704C103.839 55.1785 103.465 55.1824 103.132 55.1824V56.176V57.1695C103.48 57.1695 103.868 57.1654 104.294 57.1572L104.275 56.1638ZM103.132 56.176V55.1824C102.8 55.1824 102.577 55.1742 102.444 55.1622L102.354 56.1517L102.264 57.1411C102.488 57.1615 102.783 57.1695 103.132 57.1695V56.176ZM102.354 56.1517L103.346 56.0897C103.265 54.8019 103.197 53.42 103.14 51.9437L102.147 51.9817L101.154 52.0196C101.211 53.5097 101.281 54.9078 101.362 56.2136L102.354 56.1517ZM102.147 51.9817L103.14 51.9491C103.092 50.4717 103.056 48.9697 103.031 47.4433L102.038 47.4591L101.044 47.4748C101.069 49.0121 101.105 50.5252 101.154 52.0142L102.147 51.9817ZM102.038 47.4591L103.031 47.4434C103.007 45.9086 102.995 44.386 102.995 42.8757H102.001H101.008C101.008 44.3967 101.02 45.9297 101.044 47.4748L102.038 47.4591ZM102.001 42.8757H102.995C102.995 41.3555 103.003 39.9005 103.019 38.5106L102.026 38.499L101.032 38.4875C101.016 39.8857 101.008 41.3485 101.008 42.8757H102.001ZM102.026 38.499V37.5055C101.969 37.5055 101.848 37.5001 101.64 37.4841L101.564 38.4747L101.488 39.4653C101.701 39.4818 101.888 39.4926 102.026 39.4926V38.499ZM101.564 38.4747L101.643 37.4843C101.437 37.4679 101.22 37.4514 100.99 37.4351L100.919 38.4261L100.849 39.4171C101.073 39.4331 101.285 39.4491 101.484 39.4651L101.564 38.4747ZM100.919 38.4261L100.99 37.4351C100.788 37.4206 100.596 37.3992 100.414 37.3711L100.263 38.3531L100.112 39.3351C100.351 39.3719 100.597 39.3991 100.849 39.4171L100.919 38.4261ZM100.263 38.3531L100.458 37.3789C100.264 37.3401 100.163 37.3132 100.127 37.3012L99.813 38.2437L99.4988 39.1863C99.6571 39.2391 99.8569 39.2852 100.068 39.3274L100.263 38.3531ZM111.072 47.0822L110.097 47.2738L110.22 47.8998L110.84 48.0484L111.072 47.0822ZM110.877 43.8726L109.885 43.8186L109.885 43.8254L110.877 43.8726ZM111.291 40.2619L110.313 40.087L110.312 40.0922L111.291 40.2619ZM112.142 36.7484L113.09 37.0439L113.091 37.042L112.142 36.7484ZM113.236 33.867L113.004 32.901L112.544 33.0114L112.34 33.4374L113.236 33.867ZM116.847 33.1984L116.971 34.1842L116.977 34.1834L116.847 33.1984ZM123.861 33.1376L123.754 34.1253L123.761 34.1261L123.861 33.1376ZM127.606 33.636L128.517 33.2401L128.301 32.7424L127.765 32.6553L127.606 33.636ZM128.858 37.3927L127.893 37.6281L127.893 37.6295L128.858 37.3927ZM129.588 41.3682L128.601 41.4885L128.602 41.4951L129.588 41.3682ZM129.879 45.2464L128.886 45.2655L128.886 45.2656L129.879 45.2464ZM129.794 48.7599L130.785 48.8344L130.785 48.8339L129.794 48.7599ZM129.405 51.6048L128.434 51.3933L128.433 51.4006L129.405 51.6048ZM128.773 53.4892L129.217 54.3778L129.489 54.2419L129.639 53.977L128.773 53.4892ZM121.649 55.9936L121.857 56.9652L121.862 56.9641L121.649 55.9936ZM118.062 56.6136L117.931 55.6288L117.924 55.6298L118.062 56.6136ZM114.257 57.1243L113.687 57.9382L114.002 58.1586L114.383 58.1098L114.257 57.1243ZM113.783 56.2854L112.84 56.5996L112.844 56.6098L113.783 56.2854ZM113.37 54.863L112.402 55.0897L112.404 55.0986L112.407 55.1075L113.37 54.863ZM113.09 53.3433L112.105 53.4704L112.105 53.4725L113.09 53.3433ZM113.017 52.2126L112.973 51.2201L112.083 51.2596L112.026 52.1487L113.017 52.2126ZM115.509 51.933L115.671 52.9133L115.678 52.9121L115.509 51.933ZM118.269 51.3738L118.496 52.3412L118.504 52.3392L118.269 51.3738ZM120.749 50.7051L121.036 51.6565L121.045 51.6536L120.749 50.7051ZM122.427 50.0729L122.879 50.9576L123.255 50.7654L123.378 50.3611L122.427 50.0729ZM122.5 48.1764L123.489 48.0864L123.417 47.2923L122.626 47.1909L122.5 48.1764ZM120.08 47.9697L120.023 48.9616L120.023 48.9616L120.08 47.9697ZM116.992 47.7873L116.933 48.7791L116.933 48.7791L116.992 47.7873ZM113.807 47.532L113.7 48.5198L113.708 48.5206L113.807 47.532ZM118.123 42.28L117.13 42.2524L117.106 43.1216L117.964 43.2607L118.123 42.28ZM121.539 42.4502L121.498 43.4429L121.508 43.4433L121.519 43.4435L121.539 42.4502ZM122.573 42.5353L122.414 43.5161L123.416 43.6787L123.557 42.6726L122.573 42.5353ZM122.707 40.4442H121.713L121.713 40.4558L122.707 40.4442ZM122.573 38.8394L123.539 38.6084L123.357 37.8459H122.573V38.8394ZM121.783 38.803L121.702 39.7933L121.704 39.7934L121.783 38.803ZM119.096 38.7422L119.02 37.7515L118.535 37.7888L118.267 38.1947L119.096 38.7422ZM118.403 40.3956L117.442 40.141L117.44 40.1519L118.403 40.3956ZM111.072 47.0822L112.047 46.8906C111.879 46.0367 111.816 45.0491 111.87 43.9199L110.877 43.8726L109.885 43.8254C109.825 45.079 109.892 46.2311 110.097 47.2738L111.072 47.0822ZM110.877 43.8726L111.869 43.9266C111.932 42.7753 112.065 41.6103 112.27 40.4315L111.291 40.2619L110.312 40.0922C110.095 41.3449 109.952 42.5871 109.885 43.8186L110.877 43.8726ZM111.291 40.2619L112.269 40.4367C112.481 39.2512 112.755 38.1205 113.09 37.0439L112.142 36.7484L111.193 36.4528C110.832 37.6132 110.538 38.8248 110.313 40.087L111.291 40.2619ZM112.142 36.7484L113.091 37.042C113.429 35.9475 113.778 35.0351 114.132 34.2967L113.236 33.867L112.34 33.4374C111.932 34.2875 111.551 35.2961 111.192 36.4547L112.142 36.7484ZM113.236 33.867L113.468 34.8331C114.684 34.5409 115.851 34.325 116.971 34.1842L116.847 33.1984L116.723 32.2126C115.524 32.3635 114.284 32.5934 113.004 32.901L113.236 33.867ZM116.847 33.1984L116.977 34.1834C118.104 34.0347 119.226 33.9566 120.343 33.9488L120.336 32.9552L120.329 31.9617C119.128 31.9701 117.924 32.0541 116.717 32.2134L116.847 33.1984ZM120.336 32.9552L120.343 33.9488C121.462 33.9409 122.599 33.9996 123.754 34.1253L123.861 33.1376L123.969 32.1499C122.741 32.0162 121.527 31.9533 120.329 31.9617L120.336 32.9552ZM123.861 33.1376L123.761 34.1261C124.939 34.2455 126.168 34.4089 127.447 34.6167L127.606 33.636L127.765 32.6553C126.451 32.4417 125.183 32.2728 123.962 32.1491L123.861 33.1376ZM127.606 33.636L126.695 34.032C127.181 35.152 127.581 36.3502 127.893 37.6281L128.858 37.3927L129.823 37.1573C129.487 35.7768 129.052 34.4706 128.517 33.2401L127.606 33.636ZM128.858 37.3927L127.893 37.6295C128.208 38.9128 128.444 40.1991 128.601 41.4885L129.588 41.3682L130.574 41.2479C130.407 39.8789 130.157 38.5148 129.823 37.1559L128.858 37.3927ZM129.588 41.3682L128.602 41.4951C128.768 42.7824 128.862 44.0391 128.886 45.2655L129.879 45.2464L130.873 45.2273C130.848 43.925 130.748 42.5962 130.573 41.2412L129.588 41.3682ZM129.879 45.2464L128.886 45.2656C128.91 46.4954 128.882 47.6352 128.803 48.686L129.794 48.7599L130.785 48.8339C130.869 47.7125 130.898 46.5099 130.873 45.2272L129.879 45.2464ZM129.794 48.7599L128.804 48.6854C128.725 49.7298 128.601 50.6306 128.434 51.3933L129.405 51.6048L130.376 51.8162C130.567 50.9417 130.701 49.946 130.785 48.8344L129.794 48.7599ZM129.405 51.6048L128.433 51.4006C128.272 52.1651 128.088 52.6816 127.908 53.0013L128.773 53.4892L129.639 53.977C129.961 53.4052 130.198 52.6655 130.378 51.809L129.405 51.6048ZM128.773 53.4892L128.329 52.6005C127.132 53.1987 125.974 53.6872 124.854 54.0683L125.174 55.0089L125.495 55.9495C126.709 55.5363 127.95 55.0116 129.217 54.3778L128.773 53.4892ZM125.174 55.0089L124.854 54.0683C123.722 54.4536 122.582 54.7718 121.436 55.0231L121.649 55.9936L121.862 56.9641C123.082 56.6967 124.293 56.3584 125.495 55.9495L125.174 55.0089ZM121.649 55.9936L121.441 55.022C120.292 55.2678 119.122 55.4701 117.931 55.6288L118.062 56.6136L118.194 57.5985C119.435 57.433 120.656 57.222 121.857 56.9652L121.649 55.9936ZM118.062 56.6136L117.924 55.6298C116.721 55.7994 115.456 55.969 114.131 56.1388L114.257 57.1243L114.383 58.1098C115.716 57.9391 116.989 57.7683 118.201 57.5975L118.062 56.6136ZM114.257 57.1243L114.827 56.3103C114.879 56.3469 114.904 56.3775 114.907 56.3806C114.91 56.3846 114.901 56.3739 114.882 56.3406C114.843 56.2713 114.788 56.1507 114.722 55.961L113.783 56.2854L112.844 56.6098C112.932 56.8659 113.033 57.1079 113.152 57.3183C113.264 57.516 113.432 57.7596 113.687 57.9382L114.257 57.1243ZM113.783 56.2854L114.725 55.9712C114.588 55.5594 114.457 55.1088 114.333 54.6184L113.37 54.863L112.407 55.1075C112.541 55.6384 112.686 56.136 112.84 56.5996L113.783 56.2854ZM113.37 54.863L114.337 54.6363C114.222 54.1476 114.135 53.6736 114.075 53.2141L113.09 53.3433L112.105 53.4725C112.174 54.0018 112.274 54.541 112.402 55.0897L113.37 54.863ZM113.09 53.3433L114.075 53.2161C114.012 52.7269 113.999 52.4282 114.009 52.2766L113.017 52.2126L112.026 52.1487C112.003 52.4996 112.038 52.9546 112.105 53.4704L113.09 53.3433ZM113.017 52.2126L113.061 53.2052C113.84 53.1706 114.711 53.072 115.671 52.9133L115.509 51.933L115.347 50.9528C114.444 51.1021 113.653 51.1898 112.973 51.2201L113.017 52.2126ZM115.509 51.933L115.678 52.9121C116.637 52.7468 117.576 52.5565 118.496 52.3412L118.269 51.3738L118.042 50.4064C117.163 50.6125 116.262 50.795 115.34 50.9539L115.509 51.933ZM118.269 51.3738L118.504 52.3392C119.418 52.1169 120.262 51.8894 121.036 51.6565L120.749 50.7051L120.463 49.7537C119.729 49.9747 118.919 50.193 118.034 50.4084L118.269 51.3738ZM120.749 50.7051L121.045 51.6536C121.813 51.4142 122.437 51.1835 122.879 50.9576L122.427 50.0729L121.975 49.1882C121.687 49.3352 121.193 49.526 120.453 49.7566L120.749 50.7051ZM122.427 50.0729L123.378 50.3611C123.491 49.9889 123.542 49.5987 123.542 49.1976H122.548H121.555C121.555 49.4286 121.525 49.6221 121.476 49.7848L122.427 50.0729ZM122.548 49.1976H123.542C123.542 48.8405 123.524 48.4699 123.489 48.0864L122.5 48.1764L121.51 48.2663C121.54 48.5961 121.555 48.9063 121.555 49.1976H122.548ZM122.5 48.1764L122.626 47.1909C121.962 47.1058 121.131 47.0352 120.138 46.9778L120.08 47.9697L120.023 48.9616C120.992 49.0176 121.773 49.0849 122.373 49.1619L122.5 48.1764ZM120.08 47.9697L120.138 46.9778C119.166 46.9211 118.137 46.8604 117.052 46.7955L116.992 47.7873L116.933 48.7791C118.02 48.844 119.05 48.9048 120.023 48.9616L120.08 47.9697ZM116.992 47.7873L117.052 46.7956C115.987 46.7315 114.939 46.6475 113.907 46.5435L113.807 47.532L113.708 48.5206C114.767 48.6273 115.842 48.7135 116.933 48.7791L116.992 47.7873ZM113.807 47.532L113.914 46.5443C112.899 46.434 112.03 46.2901 111.303 46.116L111.072 47.0822L110.84 48.0484C111.67 48.2471 112.625 48.4031 113.7 48.5198L113.807 47.532ZM118.123 42.28L117.964 43.2607C118.319 43.3184 118.707 43.3496 119.123 43.3584L119.144 42.3651L119.166 41.3718C118.82 41.3644 118.527 41.3389 118.282 41.2993L118.123 42.28ZM119.144 42.3651L119.123 43.3584C119.498 43.3664 119.889 43.3784 120.297 43.3944L120.336 42.4016L120.375 41.4088C119.956 41.3924 119.553 41.38 119.166 41.3718L119.144 42.3651ZM120.336 42.4016L120.297 43.3944C120.709 43.4105 121.11 43.4267 121.498 43.4429L121.539 42.4502L121.581 41.4575C121.191 41.4413 120.789 41.425 120.375 41.4088L120.336 42.4016ZM121.539 42.4502L121.519 43.4435C121.874 43.4509 122.17 43.4766 122.414 43.5161L122.573 42.5353L122.732 41.5546C122.376 41.4968 121.983 41.4657 121.56 41.4569L121.539 42.4502ZM122.573 42.5353L123.557 42.6726C123.661 41.9267 123.709 41.18 123.7 40.4327L122.707 40.4442L121.713 40.4558C121.721 41.1025 121.679 41.7498 121.589 42.398L122.573 42.5353ZM122.707 40.4442H123.7C123.7 39.7216 123.655 39.0948 123.539 38.6084L122.573 38.8394L121.606 39.0705C121.668 39.3297 121.713 39.7728 121.713 40.4442H122.707ZM122.573 38.8394V37.8459C122.388 37.8459 122.152 37.8355 121.861 37.8125L121.783 38.803L121.704 39.7934C122.029 39.819 122.32 39.833 122.573 39.833V38.8394ZM121.783 38.803L121.863 37.8127C121.542 37.7867 121.208 37.7696 120.858 37.7611L120.834 38.7543L120.81 39.7476C121.126 39.7553 121.423 39.7706 121.702 39.7933L121.783 38.803ZM120.834 38.7543L120.858 37.7611C120.527 37.753 120.207 37.7449 119.9 37.7368L119.874 38.73L119.848 39.7232C120.156 39.7314 120.477 39.7395 120.81 39.7476L120.834 38.7543ZM119.874 38.73L119.9 37.7368C119.572 37.7282 119.276 37.7318 119.02 37.7515L119.096 38.7422L119.172 39.7328C119.337 39.7201 119.56 39.7157 119.848 39.7232L119.874 38.73ZM119.096 38.7422L118.267 38.1947C117.907 38.7395 117.639 39.3983 117.442 40.141L118.403 40.3956L119.363 40.6502C119.523 40.0474 119.717 39.604 119.925 39.2897L119.096 38.7422ZM118.403 40.3956L117.44 40.1519C117.255 40.8825 117.149 41.5838 117.13 42.2524L118.123 42.28L119.116 42.3076C119.13 41.8091 119.21 41.2541 119.366 40.6393L118.403 40.3956ZM130.44 56.9176L129.529 56.5198L129.035 57.65L130.245 57.8918L130.44 56.9176ZM136.531 43.9577L137.412 44.4155L137.413 44.414L136.531 43.9577ZM139.582 38.3653L140.443 38.8611L140.444 38.8595L139.582 38.3653ZM142.962 32.7729L142.852 31.7854L142.378 31.838L142.123 32.2408L142.962 32.7729ZM148.749 33.1619L148.533 34.1318L148.544 34.1341L148.554 34.1362L148.749 33.1619ZM149.661 33.3686L150.495 33.9077L151.213 32.7969L149.946 32.4169L149.661 33.3686ZM146.354 38.8273L145.491 38.3347L145.49 38.3359L146.354 38.8273ZM143.083 44.8088L142.204 44.3464L143.083 44.8088ZM137.041 57.1243L137.151 58.1117L137.71 58.0497L137.944 57.5387L137.041 57.1243ZM132.871 57.1972L132.817 58.1893L132.817 58.1893L132.871 57.1972ZM131.327 57.0513L131.473 56.0685L131.465 56.0673L131.457 56.0663L131.327 57.0513ZM130.44 56.9176L131.35 57.3154C132.441 54.8174 133.479 52.5152 134.464 50.4086L133.564 49.9878L132.664 49.5671C131.671 51.6913 130.626 54.0089 129.529 56.5198L130.44 56.9176ZM133.564 49.9878L134.464 50.4086C135.448 48.3046 136.43 46.307 137.412 44.4155L136.531 43.9577L135.649 43.4999C134.653 45.4178 133.658 47.4403 132.664 49.5671L133.564 49.9878ZM136.531 43.9577L137.413 44.414C138.395 42.5142 139.405 40.6633 140.443 38.8611L139.582 38.3653L138.721 37.8695C137.668 39.6984 136.643 41.5757 135.648 43.5015L136.531 43.9577ZM139.582 38.3653L140.444 38.8595C141.482 37.0495 142.601 35.198 143.801 33.3049L142.962 32.7729L142.123 32.2408C140.908 34.1571 139.773 36.0338 138.72 37.8711L139.582 38.3653ZM142.962 32.7729L143.072 33.7603C143.747 33.6853 144.421 33.6666 145.095 33.7041L145.15 32.7121L145.205 31.72C144.421 31.6765 143.636 31.6983 142.852 31.7854L142.962 32.7729ZM145.15 32.7121L145.095 33.7041C145.804 33.7435 146.451 33.8022 147.039 33.8795L147.168 32.8944L147.298 31.9094C146.653 31.8246 145.955 31.7617 145.205 31.72L145.15 32.7121ZM147.168 32.8944L147.039 33.8795C147.636 33.9581 148.132 34.0427 148.533 34.1318L148.749 33.1619L148.964 32.192C148.49 32.0866 147.933 31.9929 147.298 31.9094L147.168 32.8944ZM148.749 33.1619L148.554 34.1362C149.004 34.2261 149.264 34.2869 149.375 34.3202L149.661 33.3686L149.946 32.4169C149.733 32.353 149.386 32.276 148.944 32.1876L148.749 33.1619ZM149.661 33.3686L148.826 32.8295C147.721 34.5402 146.609 36.3755 145.491 38.3347L146.354 38.8273L147.217 39.3198C148.319 37.3887 149.412 35.5848 150.495 33.9077L149.661 33.3686ZM146.354 38.8273L145.49 38.3359C144.382 40.283 143.287 42.2865 142.204 44.3464L143.083 44.8088L143.963 45.2711C145.036 43.2299 146.121 41.2458 147.217 39.3187L146.354 38.8273ZM143.083 44.8088L142.204 44.3464C141.121 46.4057 140.067 48.4853 139.042 50.5852L139.935 51.0212L140.827 51.4572C141.844 49.3749 142.889 47.3129 143.963 45.2711L143.083 44.8088ZM139.935 51.0212L139.042 50.5852C138.017 52.6829 137.049 54.7245 136.138 56.7098L137.041 57.1243L137.944 57.5387C138.848 55.5688 139.809 53.5417 140.827 51.4572L139.935 51.0212ZM137.041 57.1243L136.931 56.1368C136.238 56.2138 135.545 56.2523 134.853 56.2523V57.2458V58.2394C135.619 58.2394 136.385 58.1968 137.151 58.1117L137.041 57.1243ZM134.853 57.2458V56.2523C134.146 56.2523 133.504 56.2364 132.925 56.2051L132.871 57.1972L132.817 58.1893C133.438 58.2229 134.117 58.2394 134.853 58.2394V57.2458ZM132.871 57.1972L132.925 56.2051C132.355 56.1739 131.872 56.1276 131.473 56.0685L131.327 57.0513L131.182 58.0341C131.658 58.1047 132.204 58.1557 132.817 58.1893L132.871 57.1972ZM131.327 57.0513L131.457 56.0663C131.026 56.0093 130.76 55.9685 130.634 55.9433L130.44 56.9176L130.245 57.8918C130.443 57.9315 130.77 57.9799 131.197 58.0363L131.327 57.0513ZM150.002 38.2437L149.009 38.2201L148.991 38.9541L149.688 39.1863L150.002 38.2437ZM150.233 36.104L149.258 35.9132L149.256 35.9235L150.233 36.104ZM150.719 34.1953L150.519 33.2221L149.961 33.337L149.778 33.8768L150.719 34.1953ZM155.084 33.4902L154.968 32.5034L154.967 32.5035L155.084 33.4902ZM159.46 33.1741H160.454V32.1805H159.46V33.1741ZM159.412 38.6814L160.405 38.6986L160.405 38.6985L159.412 38.6814ZM159.278 44.3468L160.271 44.3765L160.271 44.3764L159.278 44.3468ZM159.071 50.0486L158.079 50.0064L158.079 50.0104L159.071 50.0486ZM158.84 55.6289L159.367 56.4714L159.81 56.1947L159.833 55.673L158.84 55.6289ZM157.078 56.0058L157.196 56.9923L157.204 56.9913L157.213 56.9901L157.078 56.0058ZM154.464 56.1638L154.445 55.1704L154.445 55.1704L154.464 56.1638ZM152.543 56.1517L151.551 56.2136L151.604 57.064L152.453 57.1411L152.543 56.1517ZM152.336 51.9817L151.343 52.0142L151.343 52.0196L152.336 51.9817ZM152.227 47.4591L151.233 47.4748V47.4748L152.227 47.4591ZM152.215 38.499L153.208 38.5106L153.22 37.5055H152.215V38.499ZM151.753 38.4747L151.673 39.4651L151.676 39.4653L151.753 38.4747ZM150.452 38.3531L150.257 39.3274L150.279 39.3318L150.301 39.3351L150.452 38.3531ZM150.002 38.2437L150.995 38.2674C151.01 37.6447 151.081 36.9842 151.21 36.2845L150.233 36.104L149.256 35.9235C149.11 36.7152 149.026 37.4811 149.009 38.2201L150.002 38.2437ZM150.233 36.104L151.208 36.2948C151.348 35.5779 151.5 34.9869 151.66 34.5138L150.719 34.1953L149.778 33.8768C149.582 34.4573 149.409 35.1388 149.258 35.9132L150.233 36.104ZM150.719 34.1953L150.92 35.1684C151.455 35.0581 152.104 34.9387 152.866 34.8103L152.701 33.8306L152.536 32.8508C151.758 32.9818 151.085 33.1055 150.519 33.2221L150.719 34.1953ZM152.701 33.8306L152.866 34.8103C153.619 34.6835 154.397 34.5722 155.201 34.4768L155.084 33.4902L154.967 32.5035C154.133 32.6026 153.323 32.7183 152.536 32.8508L152.701 33.8306ZM155.084 33.4902L155.2 34.4769C156.013 34.3812 156.801 34.3057 157.563 34.2501L157.491 33.2592L157.419 32.2682C156.625 32.3261 155.808 32.4045 154.968 32.5034L155.084 33.4902ZM157.491 33.2592L157.563 34.2501C158.327 34.1944 158.958 34.1676 159.46 34.1676V33.1741V32.1805C158.893 32.1805 158.211 32.2105 157.419 32.2682L157.491 33.2592ZM159.46 33.1741H158.467C158.467 34.9593 158.451 36.7893 158.418 38.6643L159.412 38.6814L160.405 38.6985C160.438 36.8127 160.454 34.9712 160.454 33.1741H159.46ZM159.412 38.6814L158.418 38.6642C158.386 40.5322 158.342 42.4166 158.285 44.3172L159.278 44.3468L160.271 44.3764C160.328 42.4676 160.373 40.575 160.405 38.6986L159.412 38.6814ZM159.278 44.3468L158.285 44.3171C158.228 46.2094 158.16 48.1059 158.079 50.0064L159.071 50.0486L160.064 50.0909C160.145 48.182 160.214 46.2772 160.271 44.3765L159.278 44.3468ZM159.071 50.0486L158.079 50.0104C158.006 51.9051 157.929 53.7632 157.848 55.5848L158.84 55.6289L159.833 55.673C159.914 53.8473 159.991 51.9853 160.064 50.0868L159.071 50.0486ZM158.84 55.6289L158.314 54.7864C158.349 54.7642 158.35 54.7712 158.283 54.7921C158.221 54.8111 158.128 54.834 157.996 54.8576L158.172 55.8356L158.347 56.8135C158.681 56.7536 159.066 56.6597 159.367 56.4714L158.84 55.6289ZM158.172 55.8356L157.996 54.8576C157.697 54.9114 157.346 54.9661 156.942 55.0214L157.078 56.0058L157.213 56.9901C157.636 56.932 158.014 56.8732 158.347 56.8135L158.172 55.8356ZM157.078 56.0058L156.959 55.0193C156.578 55.0651 156.17 55.0998 155.736 55.1231L155.789 56.1152L155.842 57.1073C156.315 57.082 156.767 57.0438 157.196 56.9923L157.078 56.0058ZM155.789 56.1152L155.736 55.1231C155.293 55.1468 154.862 55.1626 154.445 55.1704L154.464 56.1638L154.482 57.1572C154.924 57.1489 155.377 57.1322 155.842 57.1073L155.789 56.1152ZM154.464 56.1638L154.445 55.1704C154.028 55.1785 153.654 55.1824 153.321 55.1824V56.176V57.1695C153.669 57.1695 154.056 57.1654 154.483 57.1572L154.464 56.1638ZM153.321 56.176V55.1824C152.989 55.1824 152.765 55.1742 152.633 55.1622L152.543 56.1517L152.453 57.1411C152.677 57.1615 152.972 57.1695 153.321 57.1695V56.176ZM152.543 56.1517L153.534 56.0897C153.454 54.8019 153.385 53.42 153.329 51.9437L152.336 51.9817L151.343 52.0196C151.4 53.5097 151.47 54.9078 151.551 56.2136L152.543 56.1517ZM152.336 51.9817L153.329 51.9491C153.281 50.4717 153.244 48.9697 153.22 47.4433L152.227 47.4591L151.233 47.4748C151.258 49.0121 151.294 50.5252 151.343 52.0142L152.336 51.9817ZM152.227 47.4591L153.22 47.4434C153.196 45.9086 153.184 44.386 153.184 42.8757H152.19H151.197C151.197 44.3967 151.209 45.9297 151.233 47.4748L152.227 47.4591ZM152.19 42.8757H153.184C153.184 41.3555 153.192 39.9005 153.208 38.5106L152.215 38.499L151.221 38.4875C151.205 39.8857 151.197 41.3485 151.197 42.8757H152.19ZM152.215 38.499V37.5055C152.158 37.5055 152.036 37.5001 151.829 37.4841L151.753 38.4747L151.676 39.4653C151.89 39.4818 152.077 39.4926 152.215 39.4926V38.499ZM151.753 38.4747L151.832 37.4843C151.626 37.4679 151.408 37.4514 151.179 37.4351L151.108 38.4261L151.037 39.4171C151.262 39.4331 151.474 39.4491 151.673 39.4651L151.753 38.4747ZM151.108 38.4261L151.179 37.4351C150.977 37.4206 150.785 37.3992 150.603 37.3711L150.452 38.3531L150.301 39.3351C150.54 39.3719 150.785 39.3991 151.037 39.4171L151.108 38.4261ZM150.452 38.3531L150.647 37.3789C150.453 37.3401 150.352 37.3132 150.316 37.3012L150.002 38.2437L149.688 39.1863C149.846 39.2391 150.046 39.2852 150.257 39.3274L150.452 38.3531ZM161.261 47.0822L160.286 47.2738L160.409 47.8998L161.029 48.0484L161.261 47.0822ZM161.066 43.8726L160.074 43.8186L160.074 43.8254L161.066 43.8726ZM161.48 40.2619L160.502 40.087L160.501 40.0922L161.48 40.2619ZM162.331 36.7484L163.279 37.0439L163.28 37.042L162.331 36.7484ZM163.425 33.867L163.193 32.901L162.733 33.0114L162.529 33.4374L163.425 33.867ZM167.036 33.1984L167.16 34.1842L167.165 34.1834L167.036 33.1984ZM174.05 33.1376L173.943 34.1253L173.95 34.1261L174.05 33.1376ZM177.795 33.636L178.706 33.2401L178.49 32.7424L177.954 32.6553L177.795 33.636ZM179.047 37.3927L178.082 37.6281L178.082 37.6295L179.047 37.3927ZM179.777 41.3682L178.79 41.4885L178.791 41.4951L179.777 41.3682ZM180.068 45.2464L179.075 45.2655L179.075 45.2656L180.068 45.2464ZM179.983 48.7599L180.974 48.8344L180.974 48.8339L179.983 48.7599ZM179.594 51.6048L178.623 51.3933L178.622 51.4006L179.594 51.6048ZM178.962 53.4892L179.406 54.3778L179.678 54.2419L179.828 53.977L178.962 53.4892ZM171.838 55.9936L172.045 56.9652L172.05 56.9641L171.838 55.9936ZM168.251 56.6136L168.12 55.6288L168.113 55.6298L168.251 56.6136ZM164.446 57.1243L163.876 57.9382L164.191 58.1586L164.572 58.1098L164.446 57.1243ZM163.972 56.2854L163.029 56.5996L163.033 56.6098L163.972 56.2854ZM163.558 54.863L162.591 55.0897L162.593 55.0986L162.596 55.1075L163.558 54.863ZM163.279 53.3433L162.293 53.4704L162.294 53.4725L163.279 53.3433ZM163.206 52.2126L163.162 51.2201L162.272 51.2596L162.214 52.1487L163.206 52.2126ZM165.698 51.933L165.86 52.9133L165.867 52.9121L165.698 51.933ZM168.458 51.3738L168.685 52.3412L168.693 52.3392L168.458 51.3738ZM170.938 50.7051L171.225 51.6565L171.234 51.6536L170.938 50.7051ZM172.616 50.0729L173.068 50.9576L173.444 50.7654L173.567 50.3611L172.616 50.0729ZM172.689 48.1764L173.678 48.0864L173.606 47.2923L172.815 47.1909L172.689 48.1764ZM170.269 47.9697L170.212 48.9616L170.212 48.9616L170.269 47.9697ZM167.181 47.7873L167.122 48.7791L167.122 48.7791L167.181 47.7873ZM163.996 47.532L163.889 48.5198L163.897 48.5206L163.996 47.532ZM168.312 42.28L167.319 42.2524L167.295 43.1216L168.153 43.2607L168.312 42.28ZM171.728 42.4502L171.687 43.4429L171.697 43.4433L171.708 43.4435L171.728 42.4502ZM172.762 42.5353L172.603 43.5161L173.605 43.6787L173.746 42.6726L172.762 42.5353ZM172.895 40.4442H171.902L171.902 40.4558L172.895 40.4442ZM172.762 38.8394L173.728 38.6084L173.546 37.8459H172.762V38.8394ZM171.971 38.803L171.891 39.7933L171.893 39.7934L171.971 38.803ZM169.285 38.7422L169.208 37.7515L168.724 37.7888L168.456 38.1947L169.285 38.7422ZM168.592 40.3956L167.631 40.141L167.628 40.1519L168.592 40.3956ZM161.261 47.0822L162.236 46.8906C162.068 46.0367 162.005 45.0491 162.059 43.9199L161.066 43.8726L160.074 43.8254C160.014 45.079 160.081 46.2311 160.286 47.2738L161.261 47.0822ZM161.066 43.8726L162.058 43.9266C162.121 42.7753 162.254 41.6103 162.459 40.4315L161.48 40.2619L160.501 40.0922C160.283 41.3449 160.141 42.5871 160.074 43.8186L161.066 43.8726ZM161.48 40.2619L162.458 40.4367C162.67 39.2512 162.944 38.1205 163.279 37.0439L162.331 36.7484L161.382 36.4528C161.02 37.6132 160.727 38.8248 160.502 40.087L161.48 40.2619ZM162.331 36.7484L163.28 37.042C163.618 35.9475 163.966 35.0351 164.321 34.2967L163.425 33.867L162.529 33.4374C162.121 34.2875 161.74 35.2961 161.381 36.4547L162.331 36.7484ZM163.425 33.867L163.657 34.8331C164.873 34.5409 166.04 34.325 167.16 34.1842L167.036 33.1984L166.911 32.2126C165.713 32.3635 164.473 32.5934 163.193 32.901L163.425 33.867ZM167.036 33.1984L167.165 34.1834C168.292 34.0347 169.414 33.9566 170.532 33.9488L170.525 32.9552L170.518 31.9617C169.317 31.9701 168.113 32.0541 166.906 32.2134L167.036 33.1984ZM170.525 32.9552L170.532 33.9488C171.651 33.9409 172.788 33.9996 173.943 34.1253L174.05 33.1376L174.158 32.1499C172.93 32.0162 171.716 31.9533 170.518 31.9617L170.525 32.9552ZM174.05 33.1376L173.95 34.1261C175.128 34.2455 176.357 34.4089 177.636 34.6167L177.795 33.636L177.954 32.6553C176.64 32.4417 175.372 32.2728 174.151 32.1491L174.05 33.1376ZM177.795 33.636L176.884 34.032C177.37 35.152 177.77 36.3502 178.082 37.6281L179.047 37.3927L180.012 37.1573C179.676 35.7768 179.241 34.4706 178.706 33.2401L177.795 33.636ZM179.047 37.3927L178.082 37.6295C178.397 38.9128 178.633 40.1991 178.79 41.4885L179.777 41.3682L180.763 41.2479C180.596 39.8789 180.345 38.5148 180.012 37.1559L179.047 37.3927ZM179.777 41.3682L178.791 41.4951C178.957 42.7824 179.051 44.0391 179.075 45.2655L180.068 45.2464L181.062 45.2273C181.037 43.925 180.937 42.5962 180.762 41.2412L179.777 41.3682ZM180.068 45.2464L179.075 45.2656C179.099 46.4954 179.071 47.6352 178.992 48.686L179.983 48.7599L180.974 48.8339C181.058 47.7125 181.087 46.5099 181.062 45.2272L180.068 45.2464ZM179.983 48.7599L178.992 48.6854C178.914 49.7298 178.79 50.6306 178.623 51.3933L179.594 51.6048L180.565 51.8162C180.755 50.9417 180.89 49.946 180.974 48.8344L179.983 48.7599ZM179.594 51.6048L178.622 51.4006C178.461 52.1651 178.277 52.6816 178.096 53.0013L178.962 53.4892L179.828 53.977C180.15 53.4052 180.387 52.6655 180.567 51.809L179.594 51.6048ZM178.962 53.4892L178.518 52.6005C177.321 53.1987 176.163 53.6872 175.043 54.0683L175.363 55.0089L175.683 55.9495C176.898 55.5363 178.139 55.0116 179.406 54.3778L178.962 53.4892ZM175.363 55.0089L175.043 54.0683C173.911 54.4536 172.771 54.7718 171.625 55.0231L171.838 55.9936L172.05 56.9641C173.271 56.6967 174.482 56.3584 175.683 55.9495L175.363 55.0089ZM171.838 55.9936L171.63 55.022C170.481 55.2678 169.311 55.4701 168.12 55.6288L168.251 56.6136L168.383 57.5985C169.623 57.433 170.844 57.222 172.045 56.9652L171.838 55.9936ZM168.251 56.6136L168.113 55.6298C166.91 55.7994 165.645 55.969 164.32 56.1388L164.446 57.1243L164.572 58.1098C165.905 57.9391 167.178 57.7683 168.39 57.5975L168.251 56.6136ZM164.446 57.1243L165.016 56.3103C165.068 56.3469 165.093 56.3775 165.096 56.3806C165.099 56.3846 165.09 56.3739 165.071 56.3406C165.032 56.2713 164.976 56.1507 164.911 55.961L163.972 56.2854L163.033 56.6098C163.121 56.8659 163.222 57.1079 163.341 57.3183C163.453 57.516 163.621 57.7596 163.876 57.9382L164.446 57.1243ZM163.972 56.2854L164.914 55.9712C164.777 55.5594 164.646 55.1088 164.521 54.6184L163.558 54.863L162.596 55.1075C162.73 55.6384 162.875 56.136 163.029 56.5996L163.972 56.2854ZM163.558 54.863L164.526 54.6363C164.411 54.1476 164.324 53.6736 164.264 53.2141L163.279 53.3433L162.294 53.4725C162.363 54.0018 162.463 54.541 162.591 55.0897L163.558 54.863ZM163.279 53.3433L164.264 53.2161C164.201 52.7269 164.188 52.4282 164.197 52.2766L163.206 52.2126L162.214 52.1487C162.192 52.4996 162.227 52.9546 162.293 53.4704L163.279 53.3433ZM163.206 52.2126L163.25 53.2052C164.028 53.1706 164.9 53.072 165.86 52.9133L165.698 51.933L165.536 50.9528C164.633 51.1021 163.842 51.1898 163.162 51.2201L163.206 52.2126ZM165.698 51.933L165.867 52.9121C166.826 52.7468 167.765 52.5565 168.685 52.3412L168.458 51.3738L168.231 50.4064C167.351 50.6125 166.451 50.795 165.529 50.9539L165.698 51.933ZM168.458 51.3738L168.693 52.3392C169.607 52.1169 170.451 51.8894 171.225 51.6565L170.938 50.7051L170.652 49.7537C169.918 49.9747 169.108 50.193 168.223 50.4084L168.458 51.3738ZM170.938 50.7051L171.234 51.6536C172.002 51.4142 172.626 51.1835 173.068 50.9576L172.616 50.0729L172.164 49.1882C171.876 49.3352 171.382 49.526 170.642 49.7566L170.938 50.7051ZM172.616 50.0729L173.567 50.3611C173.679 49.9889 173.731 49.5987 173.731 49.1976H172.737H171.744C171.744 49.4286 171.714 49.6221 171.665 49.7848L172.616 50.0729ZM172.737 49.1976H173.731C173.731 48.8405 173.713 48.4699 173.678 48.0864L172.689 48.1764L171.699 48.2663C171.729 48.5961 171.744 48.9063 171.744 49.1976H172.737ZM172.689 48.1764L172.815 47.1909C172.151 47.1058 171.32 47.0352 170.327 46.9778L170.269 47.9697L170.212 48.9616C171.181 49.0176 171.962 49.0849 172.562 49.1619L172.689 48.1764ZM170.269 47.9697L170.327 46.9778C169.355 46.9211 168.326 46.8604 167.241 46.7955L167.181 47.7873L167.122 48.7791C168.209 48.844 169.238 48.9048 170.212 48.9616L170.269 47.9697ZM167.181 47.7873L167.241 46.7956C166.176 46.7315 165.128 46.6475 164.096 46.5435L163.996 47.532L163.897 48.5206C164.956 48.6273 166.031 48.7135 167.122 48.7791L167.181 47.7873ZM163.996 47.532L164.103 46.5443C163.087 46.434 162.219 46.2901 161.492 46.116L161.261 47.0822L161.029 48.0484C161.859 48.2471 162.814 48.4031 163.889 48.5198L163.996 47.532ZM168.312 42.28L168.153 43.2607C168.508 43.3184 168.896 43.3496 169.312 43.3584L169.333 42.3651L169.354 41.3718C169.009 41.3644 168.716 41.3389 168.471 41.2993L168.312 42.28ZM169.333 42.3651L169.312 43.3584C169.687 43.3664 170.078 43.3784 170.486 43.3944L170.525 42.4016L170.564 41.4088C170.145 41.3924 169.742 41.38 169.354 41.3718L169.333 42.3651ZM170.525 42.4016L170.486 43.3944C170.898 43.4105 171.299 43.4267 171.687 43.4429L171.728 42.4502L171.77 41.4575C171.38 41.4413 170.978 41.425 170.564 41.4088L170.525 42.4016ZM171.728 42.4502L171.708 43.4435C172.062 43.4509 172.359 43.4766 172.603 43.5161L172.762 42.5353L172.921 41.5546C172.564 41.4968 172.172 41.4657 171.749 41.4569L171.728 42.4502ZM172.762 42.5353L173.746 42.6726C173.85 41.9267 173.898 41.18 173.889 40.4327L172.895 40.4442L171.902 40.4558C171.909 41.1025 171.868 41.7498 171.778 42.398L172.762 42.5353ZM172.895 40.4442H173.889C173.889 39.7216 173.844 39.0948 173.728 38.6084L172.762 38.8394L171.795 39.0705C171.857 39.3297 171.902 39.7728 171.902 40.4442H172.895ZM172.762 38.8394V37.8459C172.577 37.8459 172.341 37.8355 172.05 37.8125L171.971 38.803L171.893 39.7934C172.218 39.819 172.509 39.833 172.762 39.833V38.8394ZM171.971 38.803L172.052 37.8127C171.731 37.7867 171.397 37.7696 171.047 37.7611L171.023 38.7543L170.999 39.7476C171.314 39.7553 171.612 39.7706 171.891 39.7933L171.971 38.803ZM171.023 38.7543L171.047 37.7611C170.716 37.753 170.396 37.7449 170.089 37.7368L170.063 38.73L170.037 39.7232C170.345 39.7314 170.666 39.7395 170.999 39.7476L171.023 38.7543ZM170.063 38.73L170.089 37.7368C169.761 37.7282 169.465 37.7318 169.208 37.7515L169.285 38.7422L169.361 39.7328C169.526 39.7201 169.749 39.7157 170.037 39.7232L170.063 38.73ZM169.285 38.7422L168.456 38.1947C168.096 38.7395 167.828 39.3983 167.631 40.141L168.592 40.3956L169.552 40.6502C169.712 40.0474 169.906 39.604 170.114 39.2897L169.285 38.7422ZM168.592 40.3956L167.628 40.1519C167.444 40.8825 167.337 41.5838 167.319 42.2524L168.312 42.28L169.305 42.3076C169.319 41.8091 169.399 41.2541 169.555 40.6393L168.592 40.3956Z" fill="black" mask="url(#path-2-outside-1_97_3938)"/>
</g>
<g filter="url(#filter1_ddi_97_3938)">
<rect x="3.31982" y="18.7129" width="51.1945" height="50.9641" rx="12.4492" fill="#58980C"/>
<rect x="2.93079" y="18.3239" width="51.9726" height="51.7422" rx="12.8383" stroke="black" stroke-width="0.778078"/>
</g>
<path d="M8.40039 32.7184C8.40039 27.7766 12.4065 23.7705 17.3483 23.7705H40.4863C45.4281 23.7705 49.4342 27.7766 49.4342 32.7184V37.3869C49.4342 40.8246 46.6473 43.6115 43.2096 43.6115H14.625C11.1872 43.6115 8.40039 40.8246 8.40039 37.3869V32.7184Z" fill="url(#paint1_linear_97_3938)" style="mix-blend-mode:lighten"/>
<g filter="url(#filter2_df_97_3938)">
<path d="M23.0064 33.6717C23.0064 33.3501 23.2229 33.0731 23.5417 33.0306C25.7569 32.7351 32.0935 32.5983 34.6818 32.8473C35.0442 32.8821 35.2899 33.2085 35.2552 33.5709L34.6083 40.3327C34.569 40.7439 34.8923 41.0996 35.3054 41.0996H39.46C39.781 41.0996 40.0618 41.3173 40.1112 41.6345C40.3598 43.2307 40.3619 46.1045 40.1174 47.7217C40.0666 48.0576 39.7591 48.2793 39.4203 48.2552L35.2653 47.9597C34.8673 47.9314 34.5261 48.2409 34.5156 48.6397L34.3553 54.7025C34.3462 55.0464 34.0887 55.3335 33.7464 55.3684C30.888 55.6592 25.8256 55.6655 23.5715 55.3872C23.24 55.3462 23.0064 55.059 23.0064 54.7249V48.9971C23.0064 48.6104 22.6929 48.2968 22.3061 48.2968H18.3662C18.2077 48.2968 18.0483 48.2466 17.9586 48.1159C17.2036 47.0163 17.1987 43.0017 17.9439 41.5676C18.0395 41.3837 18.2412 41.2941 18.4485 41.2941H22.3061C22.6929 41.2941 23.0064 40.9806 23.0064 40.5939V33.6717Z" fill="white"/>
<path d="M23.4648 32.4521C25.7243 32.1508 32.1046 32.0134 34.7373 32.2666C35.4497 32.3351 35.8981 32.9733 35.8359 33.626L35.1895 40.3887C35.1831 40.457 35.237 40.5156 35.3057 40.5156H39.46C40.0386 40.5156 40.5894 40.9148 40.6875 41.5449C40.9454 43.2006 40.9475 46.1337 40.6943 47.8086C40.5933 48.4767 39.9889 48.8803 39.3789 48.8369L35.2236 48.542C35.1574 48.5374 35.1004 48.5889 35.0986 48.6553L34.9385 54.7178C34.9219 55.3447 34.4502 55.8835 33.8057 55.9492C30.9141 56.2435 25.8065 56.2516 23.5 55.9668C22.8511 55.8867 22.4229 55.3274 22.4229 54.7246V48.9971C22.4228 48.9326 22.3701 48.8809 22.3057 48.8809H18.3662C18.109 48.8809 17.72 48.7994 17.4775 48.4463C17.2144 48.063 17.0561 47.5013 16.958 46.9297C16.8563 46.3373 16.806 45.6537 16.8047 44.9688C16.8034 44.283 16.8513 43.5808 16.9492 42.9512C17.0454 42.3324 17.1966 41.7401 17.4258 41.2988L17.5195 41.1494C17.759 40.8306 18.1362 40.711 18.4482 40.7109H22.3057C22.3701 40.7109 22.4229 40.6582 22.4229 40.5938V33.6719C22.4229 33.0925 22.8231 32.5378 23.4648 32.4521Z" stroke="black" stroke-width="1.16712"/>
</g>
<g filter="url(#filter3_d_97_3938)">
<path d="M23.0064 33.6717C23.0064 33.3501 23.2229 33.0731 23.5417 33.0306C25.7569 32.7351 32.0935 32.5983 34.6818 32.8473C35.0442 32.8821 35.2899 33.2085 35.2552 33.5709L34.6083 40.3327C34.569 40.7439 34.8923 41.0996 35.3054 41.0996H39.46C39.781 41.0996 40.0618 41.3173 40.1112 41.6345C40.3598 43.2307 40.3619 46.1045 40.1174 47.7217C40.0666 48.0576 39.7591 48.2793 39.4203 48.2552L35.2653 47.9597C34.8673 47.9314 34.5261 48.2409 34.5156 48.6397L34.3553 54.7025C34.3462 55.0464 34.0887 55.3335 33.7464 55.3684C30.888 55.6592 25.8256 55.6655 23.5715 55.3872C23.24 55.3462 23.0064 55.059 23.0064 54.7249V48.9971C23.0064 48.6104 22.6929 48.2968 22.3061 48.2968H18.3662C18.2077 48.2968 18.0483 48.2466 17.9586 48.1159C17.2036 47.0163 17.1987 43.0017 17.9439 41.5676C18.0395 41.3837 18.2412 41.2941 18.4485 41.2941H22.3061C22.6929 41.2941 23.0064 40.9806 23.0064 40.5939V33.6717Z" fill="white"/>
<path d="M23.4648 32.4521C25.7243 32.1508 32.1046 32.0134 34.7373 32.2666C35.4497 32.3351 35.8981 32.9733 35.8359 33.626L35.1895 40.3887C35.1831 40.457 35.237 40.5156 35.3057 40.5156H39.46C40.0386 40.5156 40.5894 40.9148 40.6875 41.5449C40.9454 43.2006 40.9475 46.1337 40.6943 47.8086C40.5933 48.4767 39.9889 48.8803 39.3789 48.8369L35.2236 48.542C35.1574 48.5374 35.1004 48.5889 35.0986 48.6553L34.9385 54.7178C34.9219 55.3447 34.4502 55.8835 33.8057 55.9492C30.9141 56.2435 25.8065 56.2516 23.5 55.9668C22.8511 55.8867 22.4229 55.3274 22.4229 54.7246V48.9971C22.4228 48.9326 22.3701 48.8809 22.3057 48.8809H18.3662C18.109 48.8809 17.72 48.7994 17.4775 48.4463C17.2144 48.063 17.0561 47.5013 16.958 46.9297C16.8563 46.3373 16.806 45.6537 16.8047 44.9688C16.8034 44.283 16.8513 43.5808 16.9492 42.9512C17.0454 42.3324 17.1966 41.7401 17.4258 41.2988L17.5195 41.1494C17.759 40.8306 18.1362 40.711 18.4482 40.7109H22.3057C22.3701 40.7109 22.4229 40.6582 22.4229 40.5938V33.6719C22.4229 33.0925 22.8231 32.5378 23.4648 32.4521Z" stroke="black" stroke-width="1.16712"/>
</g>
<g filter="url(#filter4_d_97_3938)">
<g filter="url(#filter5_d_97_3938)">
<path d="M243.309 44.39L243.114 10.7381L242.528 1.5957L210.601 17.8748L221.229 22.4093L243.309 44.39Z" fill="#519104"/>
<path d="M275.159 18.1299L242.528 1.5957L243.114 10.7381L243.309 44.39L264.022 22.2148L275.159 18.1299Z" fill="#448400"/>
<path d="M275.941 68.5104L275.159 18.1299L264.022 22.2148L243.309 44.39L264.803 55.6721L275.941 68.5104Z" fill="#387003"/>
<path d="M242.332 86.4062L275.941 68.5104L264.803 55.6721L243.309 44.39L242.332 86.4062Z" fill="#2C5706"/>
<path d="M208.724 68.7049L242.332 86.4062L243.309 44.39L220.252 54.3105L208.724 68.7049Z" fill="url(#paint2_linear_97_3938)"/>
<path d="M210.482 17.9353L208.724 68.7049L220.252 54.3105L243.309 44.39L221.229 22.4093L210.601 17.8748L210.482 17.9353Z" fill="url(#paint3_linear_97_3938)"/>
<path d="M242.567 0.819336C242.584 0.82017 242.6 0.822351 242.616 0.824219C242.631 0.825911 242.646 0.828517 242.66 0.831055C242.676 0.833781 242.691 0.837113 242.707 0.84082C242.725 0.845113 242.743 0.849866 242.761 0.855469C242.775 0.859923 242.789 0.86483 242.803 0.870117C242.819 0.876223 242.835 0.882439 242.851 0.889648C242.86 0.893886 242.87 0.896745 242.879 0.901367L275.511 17.4355C275.513 17.4365 275.515 17.4375 275.517 17.4385C275.545 17.4532 275.573 17.4699 275.6 17.4883C275.601 17.4894 275.603 17.4911 275.604 17.4922C275.611 17.4964 275.616 17.5014 275.622 17.5059C275.646 17.5236 275.669 17.5423 275.69 17.5625C275.695 17.5672 275.7 17.5723 275.705 17.5771C275.723 17.5952 275.741 17.6141 275.757 17.6338C275.765 17.6438 275.773 17.6537 275.781 17.6641C275.795 17.6827 275.808 17.7019 275.82 17.7217C275.826 17.7314 275.832 17.741 275.838 17.751C275.87 17.809 275.895 17.8708 275.912 17.9355C275.914 17.9443 275.916 17.9531 275.918 17.9619C275.924 17.9899 275.929 18.0182 275.932 18.0469C275.933 18.0579 275.934 18.0689 275.935 18.0801C275.935 18.0926 275.937 18.1055 275.938 18.1182L276.718 68.4736C276.72 68.5171 276.716 68.5607 276.711 68.6045C276.71 68.612 276.71 68.6195 276.709 68.627C276.708 68.6354 276.708 68.644 276.706 68.6523C276.694 68.7148 276.674 68.7744 276.648 68.8311C276.643 68.842 276.638 68.8526 276.633 68.8633C276.621 68.8865 276.608 68.9088 276.594 68.9307C276.589 68.938 276.584 68.945 276.579 68.9521C276.539 69.0103 276.491 69.0629 276.437 69.1084C276.428 69.1158 276.418 69.1229 276.409 69.1299C276.389 69.145 276.368 69.1587 276.347 69.1719C276.337 69.1778 276.327 69.1839 276.317 69.1895C276.314 69.1916 276.311 69.1952 276.307 69.1973L242.698 87.0928C242.689 87.0975 242.679 87.1001 242.67 87.1045C242.652 87.113 242.635 87.1218 242.617 87.1289C242.606 87.1332 242.595 87.1368 242.584 87.1406C242.562 87.1483 242.539 87.1556 242.517 87.1611C242.507 87.1634 242.498 87.1651 242.488 87.167C242.468 87.1712 242.447 87.1742 242.427 87.1768C242.41 87.1789 242.392 87.1797 242.375 87.1807C242.361 87.1815 242.346 87.1826 242.332 87.1826C242.314 87.1826 242.296 87.182 242.277 87.1807C242.261 87.1795 242.245 87.1779 242.229 87.1758C242.215 87.1739 242.201 87.1716 242.188 87.1689C242.166 87.165 242.146 87.16 242.125 87.1543C242.115 87.1515 242.105 87.1487 242.095 87.1455C242.074 87.1387 242.053 87.1307 242.032 87.1221C242.02 87.117 242.008 87.1122 241.996 87.1064C241.987 87.1023 241.978 87.0992 241.97 87.0947L208.361 69.3936C208.356 69.3909 208.352 69.3866 208.347 69.3838C208.341 69.3804 208.335 69.3765 208.329 69.373C208.306 69.3592 208.283 69.3442 208.262 69.3281C208.25 69.3198 208.239 69.3116 208.229 69.3027C208.203 69.2818 208.179 69.2602 208.156 69.2363C208.148 69.228 208.142 69.2186 208.135 69.21C208.12 69.1928 208.106 69.1755 208.093 69.1572C208.083 69.1443 208.074 69.1316 208.065 69.1182C208.051 69.0958 208.039 69.0726 208.027 69.0488C208.024 69.0415 208.019 69.0348 208.016 69.0273C208.001 68.9953 207.99 68.9618 207.979 68.9277C207.977 68.9206 207.976 68.9134 207.974 68.9062C207.97 68.892 207.965 68.8778 207.962 68.8633C207.959 68.849 207.957 68.8346 207.955 68.8203C207.953 68.8093 207.952 68.7982 207.951 68.7871C207.947 68.7506 207.945 68.7141 207.946 68.6777L209.705 17.9082L209.715 17.8037C209.756 17.5638 209.908 17.3546 210.129 17.2422L210.247 17.1816L242.174 0.902344L242.182 0.899414C242.202 0.889426 242.222 0.881203 242.243 0.873047C242.251 0.869826 242.259 0.866214 242.268 0.863281C242.288 0.855872 242.31 0.850305 242.331 0.844727C242.343 0.841657 242.354 0.838449 242.366 0.835938C242.381 0.832771 242.396 0.830408 242.411 0.828125C242.432 0.824917 242.453 0.821767 242.475 0.820312C242.482 0.819778 242.49 0.819635 242.498 0.819336C242.521 0.818455 242.544 0.818154 242.567 0.819336Z" stroke="black" stroke-width="1.55616" stroke-linejoin="round"/>
</g>
<g filter="url(#filter6_iif_97_3938)">
<path d="M243.309 44.39L243.114 10.7381L242.528 1.5957L210.601 17.8748L221.229 22.4093L243.309 44.39Z" fill="#519104"/>
<path d="M275.159 18.1299L242.528 1.5957L243.114 10.7381L243.309 44.39L264.022 22.2148L275.159 18.1299Z" fill="#448400"/>
<path d="M275.941 68.5104L275.159 18.1299L264.022 22.2148L243.309 44.39L264.803 55.6721L275.941 68.5104Z" fill="#387003"/>
<path d="M242.332 86.4062L275.941 68.5104L264.803 55.6721L243.309 44.39L242.332 86.4062Z" fill="#2C5706"/>
<path d="M208.724 68.7049L242.332 86.4062L243.309 44.39L220.252 54.3105L208.724 68.7049Z" fill="url(#paint4_linear_97_3938)"/>
<path d="M210.482 17.9353L208.724 68.7049L220.252 54.3105L243.309 44.39L221.229 22.4093L210.601 17.8748L210.482 17.9353Z" fill="url(#paint5_linear_97_3938)"/>
</g>
<g filter="url(#filter7_if_97_3938)">
<path d="M242.918 8.20801L266.171 21.2408L267.343 58.5885L242.918 71.4268L217.321 57.4214L218.689 21.4353L242.918 8.20801Z" fill="url(#paint6_linear_97_3938)"/>
<path d="M265.597 21.5879L266.748 58.2422L242.923 70.7646L217.917 57.082L219.259 21.7881L242.914 8.87402L265.597 21.5879Z" stroke="#EDFF90" stroke-width="1.16712"/>
</g>
<g style="mix-blend-mode:screen" filter="url(#filter8_f_97_3938)">
<mask id="mask0_97_3938" style="mask-type:alpha" maskUnits="userSpaceOnUse" x="210" y="1" width="66" height="86">
<path d="M275.177 17.7402L243.305 1.20605L212.12 17.4852L212.004 17.5457L210.287 68.3153L243.114 86.0165L275.941 68.1207L275.177 17.7402Z" fill="black"/>
</mask>
<g mask="url(#mask0_97_3938)">
<path d="M265.062 21.6306L275.75 17.3512V29.6059L265.062 21.6306Z" fill="#ECFC12"/>
<path d="M236.243 8.01423L240.441 1.20605H242.923L248.076 8.01423L242.923 6.84712V8.59779H241.396V6.84712L236.243 8.01423Z" fill="#ECFC12"/>
<path d="M237.197 82.1261L241.396 80.959L245.022 82.1261L243.495 84.6549H240.06L237.197 82.1261Z" fill="url(#paint7_linear_97_3938)"/>
</g>
</g>
<g filter="url(#filter9_f_97_3938)">
<path d="M237.197 82.1261L241.396 80.959L245.022 82.1261L243.495 84.6549H240.06L237.197 82.1261Z" fill="url(#paint8_linear_97_3938)"/>
</g>
</g>
<defs>
<filter id="filter0_d_97_3938" x="97.9464" y="31.6982" width="83.9798" height="30.5092" filterUnits="userSpaceOnUse" color-interpolation-filters="sRGB">
<feFlood flood-opacity="0" result="BackgroundImageFix"/>
<feColorMatrix in="SourceAlpha" type="matrix" values="0 0 0 0 0 0 0 0 0 0 0 0 0 0 0 0 0 0 127 0" result="hardAlpha"/>
<feOffset dy="3.11231"/>
<feGaussianBlur stdDeviation="0.427943"/>
<feComposite in2="hardAlpha" operator="out"/>
<feColorMatrix type="matrix" values="0 0 0 0 0 0 0 0 0 0 0 0 0 0 0 0 0 0 1 0"/>
<feBlend mode="normal" in2="BackgroundImageFix" result="effect1_dropShadow_97_3938"/>
<feBlend mode="normal" in="SourceGraphic" in2="effect1_dropShadow_97_3938" result="shape"/>
</filter>
<filter id="filter1_ddi_97_3938" x="-8.69036e-05" y="16.4745" width="57.8342" height="60.1453" filterUnits="userSpaceOnUse" color-interpolation-filters="sRGB">
<feFlood flood-opacity="0" result="BackgroundImageFix"/>
<feColorMatrix in="SourceAlpha" type="matrix" values="0 0 0 0 0 0 0 0 0 0 0 0 0 0 0 0 0 0 127 0" result="hardAlpha"/>
<feMorphology radius="1.62229" operator="dilate" in="SourceAlpha" result="effect1_dropShadow_97_3938"/>
<feOffset dy="1.08153"/>
<feGaussianBlur stdDeviation="0.459649"/>
<feComposite in2="hardAlpha" operator="out"/>
<feColorMatrix type="matrix" values="0 0 0 0 0 0 0 0 0 0 0 0 0 0 0 0 0 0 1 0"/>
<feBlend mode="normal" in2="BackgroundImageFix" result="effect1_dropShadow_97_3938"/>
<feColorMatrix in="SourceAlpha" type="matrix" values="0 0 0 0 0 0 0 0 0 0 0 0 0 0 0 0 0 0 127 0" result="hardAlpha"/>
<feMorphology radius="1.62229" operator="dilate" in="SourceAlpha" result="effect2_dropShadow_97_3938"/>
<feOffset dy="3.78535"/>
<feGaussianBlur stdDeviation="0.378535"/>
<feComposite in2="hardAlpha" operator="out"/>
<feColorMatrix type="matrix" values="0 0 0 0 0 0 0 0 0 0 0 0 0 0 0 0 0 0 1 0"/>
<feBlend mode="normal" in2="effect1_dropShadow_97_3938" result="effect2_dropShadow_97_3938"/>
<feBlend mode="normal" in="SourceGraphic" in2="effect2_dropShadow_97_3938" result="shape"/>
<feColorMatrix in="SourceAlpha" type="matrix" values="0 0 0 0 0 0 0 0 0 0 0 0 0 0 0 0 0 0 127 0" result="hardAlpha"/>
<feMorphology radius="3.89039" operator="erode" in="SourceAlpha" result="effect3_innerShadow_97_3938"/>
<feOffset/>
<feComposite in2="hardAlpha" operator="arithmetic" k2="-1" k3="1"/>
<feColorMatrix type="matrix" values="0 0 0 0 0.501961 0 0 0 0 0.701961 0 0 0 0 0.188235 0 0 0 1 0"/>
<feBlend mode="normal" in2="shape" result="effect3_innerShadow_97_3938"/>
</filter>
<filter id="filter2_df_97_3938" x="15.288" y="30.6171" width="27.112" height="27.6979" filterUnits="userSpaceOnUse" color-interpolation-filters="sRGB">
<feFlood flood-opacity="0" result="BackgroundImageFix"/>
<feColorMatrix in="SourceAlpha" type="matrix" values="0 0 0 0 0 0 0 0 0 0 0 0 0 0 0 0 0 0 127 0" result="hardAlpha"/>
<feOffset dy="1.55616"/>
<feComposite in2="hardAlpha" operator="out"/>
<feColorMatrix type="matrix" values="0 0 0 0 0 0 0 0 0 0 0 0 0 0 0 0 0 0 1 0"/>
<feBlend mode="normal" in2="BackgroundImageFix" result="effect1_dropShadow_97_3938"/>
<feBlend mode="normal" in="SourceGraphic" in2="effect1_dropShadow_97_3938" result="shape"/>
<feGaussianBlur stdDeviation="0.466847" result="effect2_foregroundBlur_97_3938"/>
</filter>
<filter id="filter3_d_97_3938" x="16.2217" y="31.5508" width="25.2446" height="26.7642" filterUnits="userSpaceOnUse" color-interpolation-filters="sRGB">
<feFlood flood-opacity="0" result="BackgroundImageFix"/>
<feColorMatrix in="SourceAlpha" type="matrix" values="0 0 0 0 0 0 0 0 0 0 0 0 0 0 0 0 0 0 127 0" result="hardAlpha"/>
<feOffset dy="1.55616"/>
<feComposite in2="hardAlpha" operator="out"/>
<feColorMatrix type="matrix" values="0 0 0 0 0 0 0 0 0 0 0 0 0 0 0 0 0 0 1 0"/>
<feBlend mode="normal" in2="BackgroundImageFix" result="effect1_dropShadow_97_3938"/>
<feBlend mode="normal" in="SourceGraphic" in2="effect1_dropShadow_97_3938" result="shape"/>
</filter>
<filter id="filter4_d_97_3938" x="205.259" y="0.0390625" width="74.1465" height="93.9209" filterUnits="userSpaceOnUse" color-interpolation-filters="sRGB">
<feFlood flood-opacity="0" result="BackgroundImageFix"/>
<feColorMatrix in="SourceAlpha" type="matrix" values="0 0 0 0 0 0 0 0 0 0 0 0 0 0 0 0 0 0 127 0" result="hardAlpha"/>
<feOffset dy="4.08958"/>
<feGaussianBlur stdDeviation="0.954234"/>
<feComposite in2="hardAlpha" operator="out"/>
<feColorMatrix type="matrix" values="0 0 0 0 0 0 0 0 0 0 0 0 0 0 0 0 0 0 0.2 0"/>
<feBlend mode="normal" in2="BackgroundImageFix" result="effect1_dropShadow_97_3938"/>
<feBlend mode="normal" in="SourceGraphic" in2="effect1_dropShadow_97_3938" result="shape"/>
</filter>
<filter id="filter5_d_97_3938" x="206.973" y="0.0390625" width="70.7186" height="90.0626" filterUnits="userSpaceOnUse" color-interpolation-filters="sRGB">
<feFlood flood-opacity="0" result="BackgroundImageFix"/>
<feColorMatrix in="SourceAlpha" type="matrix" values="0 0 0 0 0 0 0 0 0 0 0 0 0 0 0 0 0 0 127 0" result="hardAlpha"/>
<feOffset dy="1.94519"/>
<feGaussianBlur stdDeviation="0.0972597"/>
<feComposite in2="hardAlpha" operator="out"/>
<feColorMatrix type="matrix" values="0 0 0 0 0 0 0 0 0 0 0 0 0 0 0 0 0 0 1 0"/>
<feBlend mode="normal" in2="BackgroundImageFix" result="effect1_dropShadow_97_3938"/>
<feBlend mode="normal" in="SourceGraphic" in2="effect1_dropShadow_97_3938" result="shape"/>
</filter>
<filter id="filter6_iif_97_3938" x="207.401" y="-0.271683" width="69.8627" height="88.0007" filterUnits="userSpaceOnUse" color-interpolation-filters="sRGB">
<feFlood flood-opacity="0" result="BackgroundImageFix"/>
<feBlend mode="normal" in="SourceGraphic" in2="BackgroundImageFix" result="shape"/>
<feColorMatrix in="SourceAlpha" type="matrix" values="0 0 0 0 0 0 0 0 0 0 0 0 0 0 0 0 0 0 127 0" result="hardAlpha"/>
<feOffset dy="-3.11231"/>
<feGaussianBlur stdDeviation="0.933693"/>
<feComposite in2="hardAlpha" operator="arithmetic" k2="-1" k3="1"/>
<feColorMatrix type="matrix" values="0 0 0 0 0.158992 0 0 0 0 0.668269 0 0 0 0 0.15036 0 0 0 1 0"/>
<feBlend mode="screen" in2="shape" result="effect1_innerShadow_97_3938"/>
<feColorMatrix in="SourceAlpha" type="matrix" values="0 0 0 0 0 0 0 0 0 0 0 0 0 0 0 0 0 0 127 0" result="hardAlpha"/>
<feOffset dy="3.89039"/>
<feComposite in2="hardAlpha" operator="arithmetic" k2="-1" k3="1"/>
<feColorMatrix type="matrix" values="0 0 0 0 0.391663 0 0 0 0 0.802885 0 0 0 0 0.277922 0 0 0 0.72 0"/>
<feBlend mode="screen" in2="effect1_innerShadow_97_3938" result="effect2_innerShadow_97_3938"/>
<feGaussianBlur stdDeviation="0.661366" result="effect3_foregroundBlur_97_3938"/>
</filter>
<filter id="filter7_if_97_3938" x="216.543" y="7.42993" width="51.5781" height="65.2807" filterUnits="userSpaceOnUse" color-interpolation-filters="sRGB">
<feFlood flood-opacity="0" result="BackgroundImageFix"/>
<feBlend mode="normal" in="SourceGraphic" in2="BackgroundImageFix" result="shape"/>
<feColorMatrix in="SourceAlpha" type="matrix" values="0 0 0 0 0 0 0 0 0 0 0 0 0 0 0 0 0 0 127 0" result="hardAlpha"/>
<feOffset dx="-0.389039" dy="5.83558"/>
<feGaussianBlur stdDeviation="0.641914"/>
<feComposite in2="hardAlpha" operator="arithmetic" k2="-1" k3="1"/>
<feColorMatrix type="matrix" values="0 0 0 0 0.490196 0 0 0 0 0.72549 0 0 0 0 0.203922 0 0 0 1 0"/>
<feBlend mode="normal" in2="shape" result="effect1_innerShadow_97_3938"/>
<feGaussianBlur stdDeviation="0.389039" result="effect2_foregroundBlur_97_3938"/>
</filter>
<filter id="filter8_f_97_3938" x="235.037" y="3.43323e-05" width="41.9189" height="85.8613" filterUnits="userSpaceOnUse" color-interpolation-filters="sRGB">
<feFlood flood-opacity="0" result="BackgroundImageFix"/>
<feBlend mode="normal" in="SourceGraphic" in2="BackgroundImageFix" result="shape"/>
<feGaussianBlur stdDeviation="0.60301" result="effect1_foregroundBlur_97_3938"/>
</filter>
<filter id="filter9_f_97_3938" x="235.875" y="79.6363" width="10.4707" height="6.34175" filterUnits="userSpaceOnUse" color-interpolation-filters="sRGB">
<feFlood flood-opacity="0" result="BackgroundImageFix"/>
<feBlend mode="normal" in="SourceGraphic" in2="BackgroundImageFix" result="shape"/>
<feGaussianBlur stdDeviation="0.661366" result="effect1_foregroundBlur_97_3938"/>
</filter>
<linearGradient id="paint0_linear_97_3938" x1="164.719" y1="71.6216" x2="164.719" y2="18.3232" gradientUnits="userSpaceOnUse">
<stop stop-color="#525252"/>
<stop offset="0.61923" stop-color="#282828"/>
<stop offset="1"/>
</linearGradient>
<linearGradient id="paint1_linear_97_3938" x1="28.9173" y1="23.7705" x2="28.9173" y2="43.6115" gradientUnits="userSpaceOnUse">
<stop stop-color="#B9E60D"/>
<stop offset="1" stop-color="#85BE13"/>
</linearGradient>
<linearGradient id="paint2_linear_97_3938" x1="242.332" y1="1.5957" x2="242.332" y2="86.4062" gradientUnits="userSpaceOnUse">
<stop stop-color="#639217"/>
<stop offset="1" stop-color="#9FC12F"/>
</linearGradient>
<linearGradient id="paint3_linear_97_3938" x1="242.332" y1="1.5957" x2="242.332" y2="86.4062" gradientUnits="userSpaceOnUse">
<stop stop-color="#E5FF0D"/>
<stop offset="1" stop-color="#CAE43C"/>
</linearGradient>
<linearGradient id="paint4_linear_97_3938" x1="242.332" y1="1.5957" x2="242.332" y2="86.4062" gradientUnits="userSpaceOnUse">
<stop stop-color="#639217"/>
<stop offset="1" stop-color="#9FC12F"/>
</linearGradient>
<linearGradient id="paint5_linear_97_3938" x1="242.332" y1="1.5957" x2="242.332" y2="86.4062" gradientUnits="userSpaceOnUse">
<stop stop-color="#E5FF0D"/>
<stop offset="1" stop-color="#CAE43C"/>
</linearGradient>
<linearGradient id="paint6_linear_97_3938" x1="234.321" y1="13.6545" x2="268.871" y2="71.7586" gradientUnits="userSpaceOnUse">
<stop stop-color="#7FBB36"/>
<stop offset="0.163462" stop-color="#9CCF45"/>
<stop offset="0.163562" stop-color="#D0E96A"/>
<stop offset="0.581731" stop-color="#DBF588"/>
<stop offset="0.581831" stop-color="#C9EB6F"/>
<stop offset="0.629808" stop-color="#B8E462"/>
<stop offset="0.629908" stop-color="#C8ED74"/>
<stop offset="0.711538" stop-color="#CDEE78"/>
<stop offset="0.711638" stop-color="#C2EB69"/>
<stop offset="1" stop-color="#C9EE6C"/>
</linearGradient>
<linearGradient id="paint7_linear_97_3938" x1="237.197" y1="82.8069" x2="245.022" y2="82.8069" gradientUnits="userSpaceOnUse">
<stop stop-color="#2B4A00"/>
<stop offset="1" stop-color="#80D500"/>
</linearGradient>
<linearGradient id="paint8_linear_97_3938" x1="237.197" y1="82.8069" x2="245.022" y2="82.8069" gradientUnits="userSpaceOnUse">
<stop stop-color="#5BA500"/>
<stop offset="1" stop-color="#6BAF07"/>
</linearGradient>
</defs>
</svg>
